<?xml version="1.0" standalone="no"?>
<!DOCTYPE svg PUBLIC "-//W3C//DTD SVG 20010904//EN"
 "http://www.w3.org/TR/2001/REC-SVG-20010904/DTD/svg10.dtd">
<svg version="1.0" xmlns="http://www.w3.org/2000/svg"
 width="1024.000000pt" height="937.000000pt" viewBox="0 0 1024.000000 937.000000"
 preserveAspectRatio="xMidYMid meet">

<g transform="translate(0.000000,937.000000) scale(0.100000,-0.100000)"
fill="#000000" stroke="none">
<path d="M9930 9351 c-5 -11 -10 -33 -10 -49 0 -40 -16 -51 -91 -63 -35 -6
-77 -16 -94 -24 -16 -8 -50 -19 -74 -25 -49 -13 -138 -89 -147 -127 -4 -14
-21 -31 -43 -42 -43 -22 -131 -113 -131 -136 0 -8 -11 -20 -25 -25 -37 -14
-114 -89 -135 -131 -11 -21 -29 -39 -43 -43 -28 -7 -127 -108 -127 -130 0 -9
-17 -26 -37 -40 -21 -13 -144 -126 -273 -251 -129 -125 -242 -231 -252 -236
-22 -12 -75 38 -626 576 -213 209 -414 400 -445 424 l-57 44 -41 -28 c-51 -33
-278 -252 -330 -318 -22 -27 -39 -55 -39 -63 0 -24 88 -111 134 -134 50 -24
87 -25 184 -5 87 18 112 14 177 -35 128 -95 634 -594 726 -715 l43 -57 -20
-35 c-10 -20 -61 -81 -113 -136 l-95 -99 -51 109 c-56 116 -96 166 -118 144
-6 -6 -19 -33 -28 -58 -8 -26 -20 -48 -26 -50 -6 -2 -37 19 -69 48 -130 114
-322 249 -355 249 -11 0 -20 -10 -24 -30 -6 -28 8 -322 21 -422 3 -27 2 -48
-2 -48 -4 0 -60 25 -125 55 -120 56 -172 68 -183 39 -3 -9 -6 -60 -6 -115 0
-54 -2 -99 -5 -99 -3 0 -95 24 -203 54 -662 181 -1122 251 -1642 250 -495 -1
-869 -54 -1490 -209 -118 -30 -250 -65 -293 -79 -43 -15 -80 -26 -82 -26 -2 0
-6 57 -7 128 -3 124 -4 127 -26 130 -14 2 -44 -11 -77 -32 -48 -32 -101 -59
-174 -87 l-23 -9 7 245 c8 270 8 272 -52 241 -40 -20 -298 -215 -351 -263 -23
-22 -44 -38 -46 -34 -2 3 -9 26 -16 51 -14 53 -26 70 -51 70 -24 0 -54 -45
-98 -147 -20 -48 -42 -88 -49 -91 -20 -6 -198 181 -212 223 -11 33 -10 40 14
75 64 98 535 574 692 700 95 76 131 86 231 66 89 -19 136 -20 166 -5 28 15
157 140 157 154 0 5 -93 103 -207 217 l-206 206 -466 -458 c-439 -431 -638
-620 -653 -620 -15 0 -220 193 -586 554 -216 212 -417 405 -445 427 -29 23
-57 53 -63 68 -24 58 -118 131 -168 131 -16 0 -34 7 -40 15 -7 9 -38 17 -86
21 -41 4 -81 11 -87 17 -7 5 -13 24 -13 42 0 50 -9 65 -40 65 -67 0 -290 -217
-290 -283 0 -16 15 -25 91 -55 24 -9 27 -17 32 -78 4 -57 9 -72 30 -90 14 -11
28 -32 32 -45 4 -13 18 -37 31 -52 13 -15 28 -45 34 -66 12 -44 88 -128 130
-142 17 -6 32 -21 38 -37 13 -37 86 -111 127 -127 20 -9 35 -24 39 -39 8 -32
91 -115 132 -132 19 -8 34 -23 38 -38 8 -32 91 -115 133 -133 18 -7 33 -20 33
-28 0 -8 88 -105 195 -215 107 -110 202 -211 211 -225 29 -44 65 -3 -759 -843
-152 -155 -277 -287 -277 -292 0 -23 389 -410 412 -410 15 0 107 91 130 127
19 32 20 44 14 147 -3 61 -9 127 -12 146 -5 33 2 43 86 143 172 203 655 670
708 683 27 7 80 -36 255 -206 l118 -115 -41 -88 c-67 -142 -120 -381 -120
-537 l0 -68 -56 -7 c-139 -17 -365 -126 -351 -168 2 -7 17 -18 33 -26 64 -30
111 -71 217 -191 151 -171 207 -229 240 -250 l28 -18 -66 -58 c-118 -105 -212
-251 -203 -314 5 -31 5 -31 -51 7 -18 12 -37 21 -41 18 -22 -14 -42 -173 -60
-491 l-11 -180 -78 -80 c-81 -83 -141 -183 -141 -235 0 -25 5 -29 53 -43 29
-8 107 -42 173 -74 145 -71 203 -94 317 -127 104 -30 170 -61 164 -78 -2 -8
-44 -14 -128 -17 -68 -3 -131 -9 -141 -14 -34 -16 -42 -59 -27 -164 19 -134
17 -489 -4 -665 -9 -75 -19 -142 -22 -147 -3 -5 -33 -24 -66 -41 -66 -36 -121
-91 -113 -114 3 -8 22 -17 42 -21 50 -9 130 -50 249 -127 194 -126 260 -151
443 -162 125 -8 210 3 285 35 l45 19 0 -52 c1 -93 19 -198 44 -253 l24 -53
-21 -7 c-52 -16 -129 -58 -138 -75 -6 -13 -6 -25 3 -38 10 -17 6 -26 -28 -67
-54 -66 -293 -314 -700 -724 l-342 -345 -214 -345 c-274 -442 -328 -532 -328
-553 0 -21 -2 -20 50 -2 55 19 155 76 555 313 l330 196 558 551 558 551 77
-14 c96 -17 293 -10 377 13 91 26 193 76 268 134 37 28 72 49 77 46 6 -4 29
-34 52 -68 55 -82 154 -178 211 -206 43 -21 58 -22 191 -20 80 2 148 1 151 -3
9 -9 -108 -67 -220 -109 l-90 -34 70 -5 c107 -8 61 -25 -68 -26 -59 0 -111 -4
-116 -10 -13 -13 4 -50 31 -67 40 -26 369 -75 525 -79 84 -2 99 7 108 65 6 33
21 55 73 109 36 38 68 68 72 68 4 0 70 -57 146 -126 146 -133 248 -214 268
-214 17 0 127 90 271 223 70 64 131 117 136 117 15 0 94 -67 115 -97 12 -18
24 -50 28 -72 9 -59 33 -71 136 -71 47 0 114 5 150 10 36 5 113 14 172 19 70
7 121 17 145 30 41 21 100 77 91 86 -3 3 -61 7 -129 8 -143 2 -195 19 -85 27
l70 5 -60 24 c-116 47 -253 114 -249 121 2 4 72 5 154 2 138 -4 152 -3 194 17
53 26 192 166 232 234 15 26 32 47 38 47 6 0 42 -24 81 -54 93 -71 177 -112
279 -136 100 -24 247 -26 367 -5 l85 15 380 -378 c707 -703 749 -741 1018
-902 94 -56 213 -134 264 -172 87 -65 271 -162 331 -174 17 -4 32 -1 39 8 17
20 -52 158 -128 259 -35 46 -123 178 -194 293 -72 114 -168 256 -215 314 -47
59 -238 262 -425 452 -396 402 -551 563 -619 643 -46 54 -48 59 -36 82 17 32
5 47 -69 81 -84 39 -83 38 -56 97 13 29 31 97 40 152 9 55 20 104 25 111 7 8
28 7 77 -3 47 -10 118 -14 233 -11 l165 3 77 37 c42 20 125 68 185 106 115 74
205 122 265 141 71 23 54 54 -72 127 -49 28 -80 52 -80 62 0 10 -9 114 -20
232 -28 303 -27 425 5 536 29 99 27 125 -14 174 l-28 34 -131 -3 c-81 -1 -132
2 -132 8 0 22 59 53 154 82 162 48 265 88 366 142 52 28 115 56 140 63 42 10
45 13 48 47 4 50 -54 160 -129 242 -31 35 -59 76 -62 92 -10 52 -17 107 -32
273 -20 224 -35 345 -46 361 -7 11 -14 12 -41 1 -18 -7 -37 -14 -41 -15 -4 -1
-16 21 -25 48 -26 75 -87 161 -176 249 l-80 79 24 16 c39 24 103 92 186 198
110 139 161 191 225 223 70 36 86 54 68 76 -35 42 -248 127 -351 139 l-58 7 0
97 c0 217 -72 484 -147 548 l-26 21 144 147 c79 81 165 163 192 182 l47 35 48
-38 c142 -116 711 -700 748 -769 17 -32 17 -41 5 -117 -25 -155 -25 -153 5
-208 29 -53 106 -130 130 -130 36 0 404 364 404 399 0 40 -19 61 -738 794
-161 164 -297 307 -302 317 -9 16 18 49 186 226 108 114 205 221 215 237 10
17 25 32 33 33 37 5 126 95 146 149 5 14 17 25 25 25 34 0 442 420 503 517 15
24 42 66 60 95 23 35 35 68 38 102 9 92 10 94 60 108 61 17 73 36 52 80 -33
71 -231 258 -271 258 -9 0 -21 -9 -27 -19z m-9631 -133 c22 -45 20 -59 -7 -42
-15 10 -31 84 -19 84 3 0 14 -19 26 -42z m-55 -128 c47 -44 93 -80 102 -80 8
0 44 27 78 60 57 55 86 72 86 53 -1 -30 -168 -302 -205 -333 -26 -22 -26 -6 0
33 30 43 42 92 26 102 -7 4 -31 -9 -55 -29 l-43 -35 -6 66 c-3 40 -11 71 -19
77 -8 6 -20 25 -27 43 -7 17 -23 41 -37 54 -30 28 -33 69 -4 69 11 0 57 -36
104 -80z m9883 54 c2 -6 -7 -25 -21 -41 -49 -58 -81 -134 -80 -190 0 -29 -3
-53 -7 -53 -3 0 -27 16 -53 35 -31 24 -46 31 -46 21 0 -8 -6 -16 -12 -19 -9
-2 -3 -20 20 -57 18 -29 31 -57 29 -63 -4 -13 -136 184 -192 286 -22 40 -32
67 -24 67 7 0 40 -27 75 -60 36 -35 71 -60 83 -60 13 0 54 31 102 76 56 52 87
74 102 72 11 -2 22 -8 24 -14z m-9729 -10 c-2 -9 -15 -26 -31 -37 -22 -17 -29
-18 -40 -8 -10 10 -6 17 16 37 32 28 60 32 55 8z m9245 -24 c-5 -36 -4 -40 13
-34 13 5 7 -5 -16 -30 -31 -33 -35 -35 -38 -17 -2 11 -12 21 -25 23 -20 3 -19
7 22 51 24 26 45 47 46 47 2 0 1 -18 -2 -40z m273 17 c30 -26 28 -57 -3 -57
-17 0 -83 57 -83 72 0 18 60 7 86 -15z m-9271 -47 c21 -23 12 -39 -13 -24 -19
12 -29 44 -14 44 5 0 17 -9 27 -20z m-55 -84 c0 -18 -37 -49 -49 -41 -16 9
-13 23 9 45 21 21 40 19 40 -4z m9122 -1 c8 -19 8 -28 -2 -40 -12 -14 -15 -14
-31 1 -11 10 -19 28 -19 41 0 32 37 31 52 -2z m-237 -49 c-6 -27 -3 -35 10
-38 13 -2 9 -10 -19 -37 -33 -32 -36 -33 -36 -13 0 13 -6 22 -15 22 -25 0 -17
22 22 62 20 21 39 38 40 38 2 0 1 -15 -2 -34z m-8657 -45 c15 -22 15 -23 -2
-20 -10 2 -26 15 -34 28 -15 22 -15 23 2 20 10 -2 26 -15 34 -28z m2173 -7
c41 8 72 -10 142 -81 103 -104 118 -145 70 -183 -26 -21 -34 -22 -123 -15 -52
4 -110 7 -128 7 -71 -1 -151 -69 -620 -520 -275 -264 -305 -290 -322 -279 -11
6 -20 17 -20 24 0 25 102 135 485 524 221 224 416 429 434 455 29 45 30 49 15
71 l-15 24 25 -17 c18 -11 36 -14 57 -10z m-2691 -34 c-18 -22 -42 -45 -53
-51 -12 -6 0 12 28 40 27 28 51 51 53 51 2 0 -11 -18 -28 -40z m6993 28 c22 1
27 -3 27 -22 0 -34 107 -152 500 -551 339 -343 430 -443 430 -471 0 -7 -9 -18
-20 -24 -17 -9 -55 24 -322 283 -358 346 -423 408 -503 472 l-59 48 -101 -8
c-176 -14 -184 -13 -211 18 -42 49 -34 70 71 175 91 91 96 94 127 87 18 -4 45
-7 61 -7z m-6655 -35 c5 -17 -26 -29 -40 -15 -6 6 -7 15 -3 22 9 14 37 9 43
-7z m-163 -4 c4 -5 4 -21 1 -34 -7 -28 -63 -95 -78 -95 -17 0 0 61 27 102 26
39 39 46 50 27z m9064 -25 c16 -35 14 -44 -9 -44 -23 0 -46 40 -37 64 8 21 32
11 46 -20z m290 -13 c32 -45 42 -78 27 -90 -9 -8 -18 -5 -34 12 -23 24 -52 87
-52 112 0 22 33 4 59 -34z m-9069 20 c0 -33 -11 -51 -31 -51 -28 0 -35 27 -14
50 23 25 45 26 45 1z m2079 -42 c-74 -86 -750 -760 -840 -839 -96 -83 -59 -42
191 215 211 217 687 685 697 685 3 0 -19 -28 -48 -61z m6456 -36 l-6 -38 20
25 c20 26 36 24 26 -2 -8 -20 -52 -40 -60 -28 -4 6 -15 10 -26 10 -26 0 -24 9
8 42 36 38 45 35 38 -9z m-8305 -30 c0 -19 -14 -16 -34 6 -24 27 -11 48 15 25
10 -9 19 -23 19 -31z m8760 -23 c0 -13 -7 -20 -20 -20 -13 0 -20 7 -20 20 0
13 7 20 20 20 13 0 20 -7 20 -20z m-9353 -42 c15 -13 18 -32 3 -23 -6 4 -18 1
-26 -6 -12 -10 -20 -7 -45 17 -26 25 -28 29 -12 35 19 7 58 -5 80 -23z m9240
10 c30 -32 66 -105 58 -118 -17 -28 -95 69 -95 118 0 28 11 28 37 0z m277 13
c9 -13 -3 -39 -21 -45 -22 -9 -27 -1 -19 29 6 25 29 34 40 16z m-9264 -19 c0
-19 -41 -80 -62 -94 -42 -26 -36 18 8 70 39 45 54 52 54 24z m280 2 c0 -24
-19 -54 -35 -54 -15 0 -22 50 -8 63 13 13 43 7 43 -9z m8440 -16 c11 -21 12
-30 3 -39 -15 -15 -41 3 -53 36 -17 44 25 47 50 3z m-8335 -35 c-9 -37 -22
-50 -36 -36 -9 9 -8 18 5 37 22 35 40 34 31 -1z m8122 -33 c11 0 10 -5 -4 -25
-21 -28 -35 -31 -53 -10 -7 9 -19 14 -27 11 -21 -8 -15 5 15 37 27 28 27 28
41 8 7 -12 20 -21 28 -21z m-8012 0 c21 -23 12 -39 -13 -24 -19 12 -29 44 -14
44 5 0 17 -9 27 -20z m8605 -60 c0 -38 -23 -50 -97 -49 -70 1 -121 17 -58 19
41 0 117 30 129 49 13 21 26 11 26 -19z m-9208 -20 c19 -17 25 -27 15 -24 -15
6 -17 2 -12 -22 7 -28 6 -28 -34 13 -23 23 -41 47 -41 53 0 20 40 9 72 -20z
m8930 -9 c32 -37 52 -86 44 -107 -6 -15 -8 -15 -27 2 -41 37 -77 134 -50 134
5 0 20 -13 33 -29z m-8652 1 c0 -27 -57 -112 -75 -112 -25 0 -18 44 15 88 31
44 60 55 60 24z m8372 1 c22 -20 23 -52 2 -60 -21 -8 -44 21 -44 54 0 27 16
30 42 6z m-8095 -9 c4 -13 -23 -44 -38 -44 -11 0 -12 43 -2 54 10 10 36 3 40
-10z m7073 -349 c102 -103 176 -182 165 -177 -11 6 -139 131 -285 278 -146
147 -220 227 -165 176 55 -50 183 -175 285 -277z m-6953 310 c-2 -5 -16 -11
-31 -13 l-28 -4 18 32 c17 28 20 29 32 13 7 -9 11 -22 9 -28z m8133 4 c0 -25
-33 -22 -38 4 -2 12 3 17 17 17 15 0 21 -6 21 -21z m-387 -19 c3 -13 10 -18
21 -14 21 8 20 -6 -4 -34 -15 -18 -25 -22 -42 -17 -47 15 -51 26 -22 57 33 33
40 35 47 8z m-7653 -22 c29 -18 32 -23 16 -26 -11 -2 -29 7 -45 22 -31 32 -18
34 29 4z m8086 -9 c3 -6 0 -17 -7 -25 -18 -17 -44 -2 -36 20 7 18 33 21 43 5z
m178 -45 c24 -9 19 -29 -9 -42 -35 -16 -66 -15 -90 4 -12 9 -30 12 -47 8 -18
-3 -28 -1 -28 6 0 19 31 23 64 7 31 -14 35 -14 62 4 34 22 28 21 48 13z
m-8870 -20 c16 -16 23 -78 8 -72 -5 2 -25 22 -46 46 l-38 42 30 0 c17 0 38 -7
46 -16z m8334 -53 c-2 -9 -10 -16 -18 -16 -20 0 -45 48 -36 71 7 18 9 17 32
-10 14 -15 24 -36 22 -45z m-8053 32 c-9 -40 -53 -103 -70 -103 -25 0 -17 44
15 88 36 50 66 57 55 15z m283 0 c2 -14 -4 -26 -18 -33 -30 -16 -44 -1 -30 34
12 33 43 32 48 -1z m8041 -8 c31 -36 49 -80 37 -92 -11 -11 -64 48 -81 90 -21
50 1 51 44 2z m-411 -17 c15 -15 16 -45 1 -53 -14 -9 -18 -4 -25 33 -7 33 3
41 24 20z m-104 -23 c3 -8 12 -15 21 -15 24 0 18 -13 -22 -51 -22 -21 -34 -27
-30 -16 9 26 -19 33 -43 12 -34 -31 -22 3 16 45 40 44 49 48 58 25z m-7296
-44 c2 -6 -1 -11 -6 -11 -14 0 -62 40 -62 52 0 12 63 -26 68 -41z m-440 -18
c5 -17 -26 -29 -40 -15 -6 6 -7 15 -3 22 9 14 37 9 43 -7z m7900 0 c5 -17 -26
-29 -40 -15 -6 6 -7 15 -3 22 9 14 37 9 43 -7z m460 -25 c-3 -26 -48 -51 -72
-42 -20 8 -12 20 28 45 40 25 48 24 44 -3z m-8529 -24 c45 -58 8 -75 -46 -22
-41 39 -41 48 -4 48 20 0 36 -9 50 -26z m266 15 c11 -18 -4 -57 -36 -94 -52
-58 -66 -38 -28 38 34 66 50 80 64 56z m7703 -23 c18 -37 9 -61 -18 -46 -30
16 -44 48 -29 66 16 20 31 13 47 -20z m269 12 c42 -46 69 -128 43 -128 -12 0
-68 75 -81 108 -17 44 6 55 38 20z m-7695 -18 c-3 -28 -21 -52 -33 -44 -13 8
-11 48 3 62 18 18 33 8 30 -18z m7292 -16 c21 -20 20 -34 -1 -34 -28 0 -47 16
-40 34 8 20 21 20 41 0z m-86 -49 c2 -22 -4 -37 -22 -54 l-25 -23 6 22 c6 22
4 22 -33 16 l-39 -8 40 42 c46 47 69 48 73 5z m-7140 -62 c5 -17 -26 -29 -40
-15 -6 6 -7 15 -3 22 9 14 37 9 43 -7z m7617 7 c4 -6 -10 -10 -34 -10 -23 0
-41 5 -41 10 0 6 15 10 34 10 19 0 38 -4 41 -10z m135 -9 c0 -26 -34 -66 -48
-57 -19 12 -14 44 10 60 29 21 38 20 38 -3z m-8199 -22 c18 -18 25 -19 45 -10
31 14 30 11 -9 -27 l-33 -32 -44 45 -44 45 32 0 c19 0 40 -8 53 -21z m274 -18
c-9 -38 -53 -101 -70 -101 -19 0 -19 11 0 58 30 71 85 105 70 43z m7360 8 c14
-17 24 -33 21 -36 -2 -2 -20 3 -40 11 -33 14 -45 34 -29 49 12 12 21 8 48 -24z
m277 3 c41 -49 64 -100 51 -113 -15 -15 -58 27 -83 83 -28 62 -10 79 32 30z
m-7362 -17 c-14 -16 -50 -21 -50 -6 0 6 10 17 22 25 27 19 48 5 28 -19z m184
-45 c142 -91 248 -246 201 -294 -13 -12 -15 -26 -10 -56 6 -33 4 -40 -9 -40
-11 0 -16 -9 -16 -29 0 -17 -5 -33 -10 -36 -20 -13 -20 24 0 96 29 105 27 157
-8 205 -31 42 -143 144 -160 144 -5 0 -54 -14 -108 -31 -55 -17 -107 -33 -116
-36 -12 -3 -18 0 -18 10 0 8 11 18 25 21 14 4 25 11 25 16 0 6 21 10 46 10 27
0 43 4 39 10 -4 6 9 10 30 10 29 0 36 3 31 15 -8 22 4 19 58 -15z m6730 15
c-5 -12 3 -15 41 -15 28 0 44 -4 40 -10 -4 -6 8 -10 29 -10 20 0 36 -5 36 -10
0 -6 10 -15 23 -20 36 -14 -3 -12 -85 5 -88 19 -125 40 -107 61 15 18 30 18
23 -1z m-74 -32 c0 -9 -31 -47 -68 -85 -38 -37 -76 -68 -85 -68 -35 0 -16 42
47 106 64 63 106 82 106 47z m-7257 -63 c21 0 36 -7 44 -20 12 -19 14 -19 61
6 28 14 55 22 65 18 27 -10 20 -24 -11 -24 -16 0 -50 -14 -76 -31 l-47 -32
-40 39 c-22 22 -39 47 -38 59 1 16 2 17 6 3 3 -13 14 -18 36 -18z m7452 -14
c79 -25 104 -52 130 -139 15 -50 15 -51 -15 -98 -37 -56 -129 -145 -165 -159
-41 -16 -78 -12 -138 14 -79 35 -103 78 -121 208 -6 47 31 105 106 166 60 48
72 49 203 8z m185 -60 c29 -59 30 -76 6 -76 -18 0 -56 104 -56 150 0 13 1 13
11 0 6 -8 23 -42 39 -74z m-6994 1 c68 -66 74 -76 74 -112 -1 -22 -11 -69 -23
-104 l-22 -64 -84 -24 c-46 -14 -94 -22 -107 -19 -29 8 -117 74 -145 110 -29
37 -27 78 8 163 l28 67 85 27 c47 15 91 27 98 28 8 1 47 -32 88 -72z m7250 61
c9 -14 -31 -48 -57 -48 -23 0 -24 17 -2 42 18 20 48 24 59 6z m-7616 -69 c-21
-79 -27 -90 -40 -69 -11 18 -4 52 22 103 29 59 38 43 18 -34z m7474 53 c9 -14
-12 -35 -28 -29 -23 9 -20 37 3 37 11 0 22 -4 25 -8z m-1594 -117 c14 -42 3
-67 -17 -40 -15 21 -18 89 -4 80 5 -3 15 -21 21 -40z m-6020 -11 c0 -12 7 -15
25 -12 31 6 43 -9 23 -28 -13 -13 -18 -12 -41 6 -27 21 -36 50 -17 50 6 0 10
-7 10 -16z m1603 -41 c13 -117 -26 -368 -73 -465 l-20 -43 5 35 c2 19 13 78
25 130 11 52 23 151 26 220 3 69 7 135 10 148 7 37 21 25 27 -25z m5379 -54
c15 -52 28 -102 28 -111 0 -16 -2 -16 -20 2 -13 13 -20 33 -20 60 0 31 -3 38
-15 34 -12 -5 -14 0 -9 24 4 17 1 32 -5 36 -16 10 -14 59 2 54 6 -3 24 -47 39
-99z m-5515 51 c-3 -11 -45 -88 -94 -170 -70 -119 -94 -152 -117 -160 -31 -11
-76 -13 -76 -4 0 20 28 48 73 70 50 26 51 27 27 37 l-25 9 29 10 29 11 -29 12
-29 11 26 26 c15 15 50 38 79 53 40 20 50 29 39 36 -11 8 -6 17 26 44 47 41
49 41 42 15z m4708 -9 c28 -19 39 -34 38 -49 -2 -16 7 -26 30 -38 17 -9 47
-28 65 -42 25 -19 30 -28 21 -38 -6 -8 -19 -14 -28 -15 -9 0 -4 -6 13 -13 l29
-13 -27 -7 c-33 -8 -26 -22 17 -31 45 -10 82 -39 97 -75 7 -17 11 -32 9 -35
-2 -2 -31 11 -64 28 -62 33 -76 53 -245 340 -15 24 -1 21 45 -12z m694 -38
c-7 -10 -50 -54 -96 -99 -89 -86 -113 -129 -113 -196 0 -62 9 -88 31 -88 10 0
58 36 106 81 119 109 128 113 233 105 100 -7 182 -26 188 -43 3 -11 -493 -523
-507 -523 -11 0 -61 142 -72 205 -7 37 -9 117 -6 205 l6 145 115 113 c107 104
147 137 115 95z m-5748 -43 c23 -13 25 -38 4 -46 -23 -9 -45 15 -45 51 0 37
14 57 18 26 2 -12 12 -26 23 -31z m425 -32 c-16 -164 -48 -300 -65 -282 -16
16 -41 116 -41 162 0 36 9 60 46 119 25 40 50 73 56 73 7 0 8 -24 4 -72z
m4924 62 c0 -6 11 -8 25 -4 28 7 31 -5 19 -78 -8 -46 -20 -49 -29 -7 -4 17
-15 39 -26 50 -10 10 -16 25 -13 34 7 17 24 21 24 5z m-341 -73 c46 -69 49
-95 27 -186 -8 -31 -17 -69 -21 -86 -6 -25 -8 -27 -16 -12 -27 47 -64 368 -41
353 6 -3 29 -34 51 -69z m1351 70 c0 -1 -33 -34 -72 -72 -40 -39 -61 -56 -48
-40 62 76 120 130 120 112z m59 -82 l30 -44 -24 -33 c-54 -73 -54 -71 11 -145
91 -104 647 -658 754 -751 59 -51 103 -82 117 -82 20 0 23 -5 23 -39 0 -22 5
-43 10 -46 7 -4 6 -14 -1 -28 -19 -36 -191 -207 -208 -207 -9 0 -29 11 -46 24
-34 28 -37 53 -22 227 l9 97 -93 108 c-158 187 -643 662 -764 751 l-30 22 95
95 c52 53 98 96 102 96 3 0 20 -20 37 -45z m-7335 -45 l81 -79 -281 -278
c-388 -384 -566 -587 -580 -659 -3 -18 1 -72 9 -120 15 -82 14 -92 -1 -124
-23 -46 -57 -63 -91 -45 -35 18 -154 142 -175 183 -24 47 -18 106 11 110 64 9
891 828 909 899 7 26 -20 93 -38 93 -4 0 -8 5 -8 11 0 16 60 89 72 89 6 0 47
-36 92 -80z m5835 -15 c6 -35 9 -76 5 -90 -4 -17 -1 -32 9 -43 16 -18 47 -113
47 -144 0 -35 -20 -7 -35 50 -9 31 -21 66 -28 77 -12 21 -26 215 -16 215 4 0
12 -29 18 -65z m-2299 48 c0 -5 -7 -17 -15 -27 -9 -12 -15 -42 -15 -72 0 -42
5 -59 26 -83 14 -17 24 -31 22 -31 -1 0 -79 -7 -172 -15 -422 -37 -979 -141
-1374 -256 -261 -76 -579 -183 -654 -221 l-38 -18 0 -110 c0 -128 24 -477 45
-665 24 -207 128 -779 165 -905 17 -58 15 -60 -49 -60 -86 0 -106 -19 -106
-100 0 -53 3 -65 24 -81 29 -24 100 -25 143 -3 17 9 34 12 38 7 5 -4 34 -89
66 -188 106 -335 213 -616 361 -950 90 -203 104 -245 82 -245 -23 0 -226 42
-237 49 -5 3 -48 94 -94 201 -293 671 -511 1435 -592 2075 -65 508 -106 1102
-77 1119 11 7 21 -28 21 -77 0 -39 14 -76 34 -89 6 -4 30 -8 53 -8 30 0 50 7
72 26 26 22 31 33 31 72 0 41 -4 50 -45 89 l-45 43 23 14 c31 20 265 102 497
175 479 149 906 244 1360 301 299 37 450 48 450 33z m335 -3 c589 -51 1038
-147 1720 -370 250 -82 395 -136 395 -148 0 -4 -18 -22 -41 -42 -32 -27 -42
-44 -46 -76 -4 -35 -1 -45 26 -76 49 -56 105 -56 164 0 l27 26 0 -71 c0 -168
-43 -659 -81 -918 -110 -760 -305 -1440 -616 -2144 l-68 -155 -113 -25 c-143
-32 -148 -29 -110 72 14 40 61 151 103 247 96 221 201 499 300 800 43 129 81
239 85 243 4 5 21 2 38 -7 43 -22 114 -21 143 3 21 16 24 28 24 81 0 54 -3 64
-25 82 -19 16 -36 19 -87 16 -51 -2 -62 0 -58 11 18 45 68 256 90 374 73 403
122 829 132 1172 l6 201 -304 101 c-621 208 -1097 311 -1742 378 -82 8 -153
17 -158 20 -4 3 1 20 11 38 27 44 27 116 -1 151 l-20 26 43 0 c24 0 97 -5 163
-10z m-3245 -58 c56 -57 80 -106 62 -124 -12 -12 -152 137 -152 162 0 35 32
22 90 -38z m6040 52 c0 -31 -123 -160 -141 -148 -14 8 9 44 64 102 45 46 77
65 77 46z m-6090 -158 c54 -52 114 -102 134 -110 44 -18 68 -67 70 -141 1 -41
-7 -66 -43 -137 -24 -49 -48 -88 -54 -88 -13 0 -517 502 -512 510 13 20 155
49 289 59 12 0 57 -36 116 -93z m1034 13 c-52 -88 -109 -142 -179 -168 -32
-12 -60 -20 -62 -17 -11 10 30 108 55 133 24 23 213 125 220 118 2 -1 -14 -31
-34 -66z m4061 12 c38 -18 80 -42 94 -54 38 -36 89 -157 65 -157 -3 0 -37 16
-75 36 -76 40 -129 93 -172 173 l-28 51 23 -9 c13 -5 55 -23 93 -40z m-4899
14 c8 -33 -3 -77 -19 -72 -13 4 -22 60 -13 83 8 22 25 16 32 -11z m419 -24 c9
-29 35 -193 35 -224 0 -27 -2 -28 -32 -22 -82 16 -98 25 -98 54 0 46 63 211
81 211 4 0 10 -8 14 -19z m7005 -756 c0 -5 -171 161 -380 370 -209 209 -380
384 -380 390 0 5 171 -161 380 -370 209 -209 380 -384 380 -390z m-8408 688
c-81 -92 -662 -673 -737 -737 -84 -72 -43 -24 173 201 165 172 607 603 619
603 3 0 -22 -30 -55 -67z m6285 -23 c18 -47 32 -91 33 -97 0 -18 -39 -40 -82
-48 l-38 -7 0 70 c0 39 5 94 11 122 16 75 37 64 76 -40z m-478 -30 c21 -37 21
-40 4 -40 -32 0 -60 28 -67 67 -4 21 -9 47 -12 58 -7 27 44 -30 75 -85z
m-3928 17 c-10 -25 -63 -62 -81 -55 -4 2 13 32 39 68 41 58 46 62 49 39 2 -14
-2 -37 -7 -52z m4554 -8 c34 -26 85 -91 85 -110 0 -3 -27 -1 -60 4 l-60 10
-15 50 c-26 88 -17 97 50 46z m-5195 -34 c0 -50 -2 -55 -25 -61 -14 -3 -41 -3
-60 0 -34 7 -42 20 -27 42 10 15 93 74 104 74 4 0 8 -25 8 -55z m2368 8 c-10
-2 -28 -2 -40 0 -13 2 -5 4 17 4 22 1 32 -1 23 -4z m480 0 c-10 -2 -28 -2 -40
0 -13 2 -5 4 17 4 22 1 32 -1 23 -4z m202 -137 c327 -46 656 -113 964 -197
181 -49 549 -169 639 -208 l47 -20 0 -68 c0 -267 -69 -839 -146 -1222 -122
-603 -292 -1105 -589 -1733 -98 -207 -98 -207 -134 -212 -50 -8 -415 -34 -659
-46 -257 -13 -965 -13 -1227 0 -225 11 -608 38 -643 46 -42 9 -259 472 -406
865 -207 558 -362 1228 -420 1814 -17 166 -36 450 -36 520 l0 40 178 62 c550
192 1077 314 1567 362 61 6 126 13 145 15 91 10 611 -3 720 -18z m-3021 -32
c2 -2 -8 -9 -22 -15 -33 -15 -47 -55 -47 -140 0 -85 -4 -96 -49 -118 -125 -63
-168 -26 -127 107 14 42 27 91 31 109 8 40 26 55 78 64 38 6 126 2 136 -7z
m5263 -6 c22 -8 29 -20 38 -63 6 -28 20 -75 30 -104 24 -62 26 -107 4 -115
-28 -11 -94 -6 -129 9 -43 17 -55 46 -55 129 0 80 -14 120 -48 136 l-27 14 35
7 c41 8 114 2 152 -13z m115 -104 c25 -54 26 -73 3 -59 -13 8 -49 83 -50 103
0 29 23 8 47 -44z m-337 11 c13 -14 20 -28 17 -32 -8 -7 -57 35 -57 49 0 15
16 8 40 -17z m-5490 -87 c0 -13 -4 -10 -50 39 l-45 46 48 -39 c26 -21 47 -42
47 -46z m153 -13 c-16 -43 -34 -81 -42 -83 -20 -6 -8 37 31 118 41 83 46 65
11 -35z m-1553 18 c-89 -98 -209 -217 -245 -245 -22 -17 30 39 115 125 145
148 207 204 130 120z m7267 -29 c3 -8 -1 -23 -10 -32 -15 -14 -17 -14 -23 1
-8 21 1 47 16 47 6 0 13 -7 17 -16z m183 -71 c0 -9 -5 -46 -12 -82 -10 -58
-13 -63 -19 -36 -10 46 -10 91 1 120 10 27 30 26 30 -2z m-6080 -4 c13 -24 -6
-163 -21 -153 -12 7 -12 174 1 174 5 0 14 -9 20 -21z m5980 -56 c28 -97 52
-237 55 -323 4 -89 3 -91 -6 -40 -6 30 -26 118 -45 195 -34 142 -42 205 -24
205 5 0 14 -17 20 -37z m-5894 -65 c-8 -40 -22 -96 -30 -124 -16 -59 -37 -212
-35 -264 1 -33 2 -32 14 15 l12 50 8 -60 9 -60 10 54 c22 112 48 56 65 -138
14 -149 36 -191 60 -111 13 45 56 100 78 100 17 0 113 -50 113 -59 0 -3 -48
-60 -106 -126 -58 -66 -112 -132 -119 -146 -12 -23 -75 -79 -89 -79 -3 0 -6
15 -6 33 0 19 -11 71 -25 116 -38 126 -48 234 -42 426 7 222 59 487 90 456 6
-6 3 -37 -7 -83z m-161 -68 c-9 -127 -24 -233 -35 -244 -16 -16 -40 14 -40 49
0 44 36 254 50 290 20 53 31 9 25 -95z m5709 69 c-4 -160 -28 -455 -37 -461
-22 -14 -32 -1 -31 38 1 119 28 441 37 452 17 21 32 7 31 -29z m-5185 -62 c15
-114 29 -363 23 -395 -3 -15 -10 -22 -21 -20 -13 3 -17 23 -22 113 -10 171
-10 395 0 395 5 0 14 -42 20 -93z m5710 56 c34 -131 40 -256 15 -305 -25 -48
-36 -22 -45 109 -13 178 5 293 30 196z m-5866 -43 c0 -25 -22 -108 -47 -185
-44 -133 -66 -180 -66 -142 0 10 -12 46 -26 80 -21 50 -25 72 -21 115 11 103
74 187 137 180 23 -3 25 -7 23 -48z m5559 13 c33 -32 58 -101 58 -164 0 -45
-10 -82 -45 -164 l-17 -40 -55 194 c-45 158 -53 195 -42 202 22 15 71 1 101
-28z m-642 -3 c0 -16 -4 -30 -10 -30 -5 0 -10 14 -10 30 0 17 5 30 10 30 6 0
10 -13 10 -30z m-4855 -286 c-6 -37 -19 -50 -57 -59 l-26 -7 41 143 42 143 3
-94 c2 -52 0 -109 -3 -126z m455 156 c0 -16 -4 -30 -10 -30 -5 0 -10 14 -10
30 0 17 5 30 10 30 6 0 10 -13 10 -30z m4920 -70 c11 -36 21 -81 22 -100 3
-32 1 -35 -22 -32 -14 1 -31 9 -39 17 -16 16 -27 148 -16 192 6 27 7 27 21 8
8 -11 24 -49 34 -85z m-483 28 c-2 -13 -4 -3 -4 22 0 25 2 35 4 23 2 -13 2
-33 0 -45z m1025 -120 c-9 -20 -11 -18 -11 22 0 40 2 42 11 23 8 -17 8 -29 0
-45z m-275 -20 c-2 -13 -4 -5 -4 17 -1 22 1 32 4 23 2 -10 2 -28 0 -40z m-22
-59 c7 -63 19 -82 30 -48 13 41 27 2 33 -89 4 -74 0 -105 -21 -188 -30 -117
-52 -173 -72 -180 -22 -9 -54 14 -69 49 -12 30 -28 50 -153 197 -29 33 -53 65
-53 70 0 16 58 41 97 42 42 2 66 -22 84 -83 11 -36 29 -53 29 -28 0 6 7 9 15
5 8 -3 15 -2 16 2 0 4 4 77 8 162 4 85 11 161 15 169 15 23 33 -13 41 -80z
m-6139 -35 c-8 -21 -26 -17 -26 6 0 10 6 32 13 47 l12 28 3 -34 c2 -18 1 -39
-2 -47z m99 -66 c8 -29 17 -91 20 -138 l5 -85 -34 100 c-19 55 -41 132 -49
170 l-16 70 29 -32 c16 -18 36 -56 45 -85z m-185 74 c15 -12 25 -35 31 -71 5
-35 42 -124 104 -252 53 -109 95 -204 92 -211 -3 -8 -6 -6 -6 5 -1 10 -9 17
-19 17 -23 0 -68 61 -117 160 -47 94 -109 181 -174 245 -28 27 -51 55 -51 62
0 17 70 63 96 63 12 0 32 -8 44 -18z m6652 -14 c27 -18 48 -38 48 -44 0 -6
-14 -17 -30 -24 -17 -7 -50 -34 -73 -60 -41 -47 -61 -78 -148 -234 -48 -86
-112 -165 -125 -153 -4 4 31 87 79 185 47 97 95 211 108 252 35 120 59 133
141 78z m-236 -28 c-9 -70 -43 -175 -61 -190 -14 -12 -15 -8 -9 31 14 105 50
209 71 209 3 0 3 -23 -1 -50z m-392 24 c26 -10 18 -21 -21 -29 -20 -4 -48 -15
-61 -26 -41 -32 -60 3 -22 41 20 20 71 27 104 14z m-5392 -20 c10 -6 11 -44 2
-44 -23 0 -122 44 -118 52 6 10 98 3 116 -8z m5848 -4 c0 -15 -42 -122 -46
-117 -4 4 15 118 23 130 5 9 23 -1 23 -13z m-6370 -99 c-1 -31 -14 -12 -24 34
-6 28 -5 29 9 11 8 -11 15 -31 15 -45z m-312 -11 c15 -17 51 -55 80 -86 53
-57 62 -74 38 -74 -15 0 -148 136 -166 169 -17 33 16 27 48 -9z m6971 -12
c-18 -34 -142 -189 -147 -183 -10 10 10 57 39 90 17 19 28 38 25 43 -9 16 25
52 48 52 13 0 27 7 30 16 4 9 9 14 12 11 3 -3 0 -16 -7 -29z m-937 -36 c9 -15
44 -57 77 -94 34 -36 61 -69 61 -72 0 -4 -24 9 -52 29 -46 31 -88 45 -88 30 0
-3 -7 -47 -14 -98 -8 -50 -20 -155 -26 -232 -14 -173 -21 -202 -82 -342 -26
-61 -53 -135 -59 -162 -6 -31 -9 -136 -7 -269 l3 -218 32 -65 c42 -85 89 -149
109 -149 15 0 16 9 10 65 -4 36 -18 120 -31 186 -37 179 -33 295 16 462 11 37
27 111 35 165 8 53 18 100 23 105 8 8 130 -39 268 -105 77 -37 69 -49 -12 -19
-31 12 -69 21 -85 21 -20 0 -30 5 -30 15 0 22 -53 19 -74 -4 -49 -55 -89 -247
-90 -436 -1 -156 16 -225 100 -407 30 -66 53 -124 52 -128 -2 -5 -32 10 -67
31 -36 21 -68 39 -72 39 -10 0 -15 -36 -27 -200 -11 -147 -16 -170 -39 -170
-9 0 -55 38 -103 84 -89 84 -122 103 -139 82 -5 -6 -18 -62 -30 -124 -30 -156
-33 -162 -90 -161 -49 0 -138 13 -146 20 -2 3 21 72 51 155 231 622 379 1194
463 1799 31 218 32 220 63 167z m-5057 -192 c14 -91 43 -264 65 -385 54 -296
53 -288 40 -280 -16 10 -47 75 -76 161 -20 61 -28 116 -40 268 -17 216 -29
305 -44 320 -7 7 -24 3 -56 -12 -52 -25 -51 -24 20 71 61 81 55 91 91 -143z
m5839 153 c-19 -31 -34 -63 -34 -70 0 -22 -36 -86 -60 -108 l-23 -20 8 25 c18
62 121 230 140 230 2 0 -12 -26 -31 -57z m-6595 -118 c49 -99 57 -132 21 -85
-19 24 -40 65 -91 175 -33 70 -33 74 -5 40 14 -16 48 -75 75 -130z m644 -37
c-21 -26 -23 -70 -8 -176 27 -194 9 -222 -215 -337 -207 -106 -269 -167 -301
-295 l-12 -45 -28 60 c-50 104 -111 305 -104 342 7 41 87 129 171 189 34 24
139 85 232 133 93 49 191 103 218 120 48 30 66 33 47 9z m5201 -50 c17 -38 11
-64 -10 -47 -13 11 -20 79 -9 79 3 0 12 -14 19 -32z m237 -54 c275 -140 446
-265 465 -339 13 -51 -110 -360 -139 -349 -8 3 -29 32 -48 66 -48 84 -84 113
-249 198 -163 84 -224 135 -236 196 -7 38 1 236 12 287 4 15 11 27 16 27 6 0
86 -39 179 -86z m-5381 -41 c18 -66 24 -199 11 -232 -15 -36 -41 -49 -41 -21
0 11 7 20 15 20 18 0 18 4 0 115 -17 105 -19 155 -5 155 5 0 14 -17 20 -37z
m5126 -102 c-7 -79 -5 -94 14 -130 20 -40 11 -60 -10 -21 -6 11 -20 20 -30 20
-23 0 -24 8 -10 117 13 93 16 103 31 103 8 0 10 -24 5 -89z m794 -244 c0 -14
-20 -37 -32 -37 -10 0 -11 34 -1 43 11 12 33 8 33 -6z m-5922 -14 c5 -10 12
-43 16 -73 4 -30 20 -107 37 -170 22 -87 29 -137 29 -209 0 -141 -19 -319 -42
-381 -31 -86 -33 -109 -12 -117 36 -14 124 124 154 241 10 40 24 134 31 209 6
76 13 136 14 135 2 -2 24 -79 50 -173 75 -273 188 -602 278 -811 l35 -81 -96
-6 c-66 -4 -101 -2 -110 6 -21 17 -32 52 -53 167 -11 57 -26 111 -33 119 -13
12 -30 -1 -130 -99 -105 -103 -116 -110 -120 -89 -12 51 -26 197 -26 265 0 84
-6 104 -29 104 -17 0 -77 -37 -133 -80 -24 -19 -18 -2 47 132 100 203 105 222
105 392 0 187 -35 398 -76 464 -20 31 -65 29 -156 -7 -40 -16 -84 -32 -98 -36
-67 -19 63 46 210 104 42 16 98 13 108 -6z m-740 -90 c36 -73 84 -202 80 -215
-6 -15 -92 160 -106 215 -6 21 -7 37 -1 37 5 0 17 -17 27 -37z m6592 -67 c-31
-74 -60 -115 -60 -84 0 22 82 184 87 171 2 -6 -10 -45 -27 -87z m-5754 21 c51
-30 99 -446 58 -505 -9 -14 -14 -33 -10 -46 5 -20 2 -24 -17 -22 -22 1 -23 2
-14 76 4 41 7 138 5 215 -3 127 -6 145 -31 199 -27 57 -34 105 -19 120 4 4 9
0 11 -11 2 -10 9 -22 17 -26z m4941 -9 c-4 -24 -14 -68 -23 -98 -33 -103 -26
-386 12 -495 17 -51 17 -55 -1 -55 -9 0 -15 10 -15 26 0 19 -4 25 -15 20 -10
-4 -15 1 -15 15 0 11 -8 32 -17 46 -15 23 -18 52 -18 193 1 100 6 188 14 225
28 124 92 225 78 123z m-5989 -25 c6 -18 7 -33 2 -33 -8 0 -30 53 -30 73 0 18
16 -6 28 -40z m760 34 c17 -20 30 -98 42 -245 11 -137 6 -172 -26 -172 -8 0
-51 -18 -95 -41 -45 -22 -82 -39 -84 -37 -6 6 15 192 31 276 31 174 90 270
132 219z m5558 -24 c30 -44 61 -166 85 -329 23 -161 21 -179 -20 -140 -16 15
-59 40 -97 55 -84 34 -96 53 -88 136 9 95 33 247 45 283 14 42 44 40 75 -5z
m584 -17 c0 -13 -54 -109 -100 -176 -47 -70 -57 -102 -70 -230 -16 -161 -32
-153 -28 15 3 139 3 141 41 220 21 44 54 108 73 142 32 58 35 61 59 50 14 -7
25 -16 25 -21z m-6720 -3 c0 -9 25 -60 55 -114 39 -67 59 -114 65 -155 10 -60
14 -341 5 -332 -3 2 -11 75 -18 160 l-13 157 -49 83 c-88 149 -105 185 -99
202 8 22 54 21 54 -1z m400 -20 c0 -10 -7 -42 -15 -72 -8 -30 -20 -96 -26
-148 -7 -51 -16 -92 -20 -91 -4 2 -25 25 -47 53 l-40 50 35 70 c62 123 113
185 113 138z m5894 -15 c32 -43 86 -157 86 -184 0 -27 -67 -93 -75 -73 -9 26
-55 248 -55 269 0 29 15 25 44 -12z m-6331 -146 c54 -93 72 -149 87 -267 22
-182 74 -328 181 -511 34 -58 58 -108 55 -112 -13 -12 -59 23 -80 60 -12 21
-50 73 -86 115 -144 172 -182 255 -199 434 -14 147 -21 370 -11 364 4 -3 28
-40 53 -83z m6784 -91 c-8 -207 -25 -309 -67 -398 -45 -97 -287 -413 -316
-413 -22 0 -17 17 29 88 130 203 173 319 201 549 9 67 22 139 31 160 17 41
114 193 123 193 3 0 2 -80 -1 -179z m-5537 104 c0 -9 -7 -18 -16 -22 -18 -7
-39 11 -30 26 11 17 46 13 46 -4z m4258 3 c-6 -16 -36 -34 -44 -26 -3 4 -4 14
-1 23 7 17 51 21 45 3z m470 -188 c0 -113 -3 -156 -9 -135 -14 49 -22 197 -14
271 12 113 24 48 23 -136z m-5211 -17 c-2 -27 -3 -5 -3 47 0 52 1 74 3 48 2
-27 2 -69 0 -95z m-392 -60 c10 -20 18 -74 21 -145 6 -120 19 -188 34 -188 6
0 10 8 10 17 0 13 3 14 12 5 24 -24 28 -10 28 96 l0 108 33 31 c36 36 110 72
146 73 23 0 24 -1 18 -67 -3 -38 -24 -124 -46 -193 -22 -69 -43 -142 -47 -164
-8 -45 -48 -94 -99 -122 l-37 -19 -17 22 c-23 27 -104 212 -136 307 -29 86
-45 200 -45 309 l0 82 55 -60 c30 -33 61 -74 70 -92z m6107 56 c-7 -162 -61
-369 -138 -521 -19 -37 -34 -79 -34 -94 0 -23 3 -26 25 -21 16 3 24 0 22 -7
-12 -36 -87 -1 -179 82 -30 27 -38 41 -38 70 0 19 -21 105 -47 191 -25 86 -47
174 -47 196 -1 36 2 40 26 43 47 6 146 -57 173 -108 9 -17 19 -69 24 -117 7
-77 8 -81 10 -32 0 31 4 72 8 90 6 29 9 20 19 -56 l11 -90 2 75 c2 105 18 196
45 256 26 57 93 137 110 131 7 -3 10 -33 8 -88z m365 -26 c-2 -21 -4 -6 -4 32
0 39 2 55 4 38 2 -18 2 -50 0 -70z m-320 0 c-2 -16 -4 -3 -4 27 0 30 2 43 4
28 2 -16 2 -40 0 -55z m-6640 -40 c-2 -21 -4 -4 -4 37 0 41 2 58 4 38 2 -21 2
-55 0 -75z m-45 -226 c40 -74 69 -113 171 -232 128 -149 114 -154 -73 -27
-171 116 -204 152 -203 220 1 58 27 115 51 110 9 -2 33 -34 54 -71z m7117 60
c17 -21 35 -111 27 -140 -9 -39 -67 -91 -175 -162 -135 -88 -191 -119 -191
-106 0 6 36 50 80 97 74 80 132 160 202 278 29 49 39 54 57 33z m-7274 -149
c4 -13 18 -38 32 -55 30 -41 22 -42 -28 -2 -36 28 -48 56 -32 72 12 13 22 7
28 -15z m7063 -58 c-7 -10 -32 -25 -56 -33 -42 -14 -42 -14 -26 4 9 11 25 19
34 19 9 0 25 7 36 15 25 19 26 19 12 -5z m-647 -141 c154 -105 264 -191 279
-219 9 -17 4 -23 -42 -47 -113 -59 -103 -60 -136 10 -28 61 -132 209 -165 236
-9 7 -24 10 -33 7 -26 -10 -11 -59 45 -151 52 -87 104 -185 99 -190 -8 -6
-151 25 -165 37 -28 23 -43 75 -43 151 0 104 12 257 20 257 3 0 67 -41 141
-91z m-5331 23 c1 -41 15 -133 35 -228 6 -26 2 -37 -26 -69 -19 -21 -48 -44
-66 -51 -43 -19 -112 -18 -119 0 -3 8 28 72 69 143 87 148 95 168 71 177 -12
5 -29 -7 -58 -36 -40 -42 -137 -182 -170 -246 -9 -17 -20 -32 -24 -32 -10 0
-115 71 -124 84 -16 23 -5 38 70 93 132 99 324 223 333 217 5 -3 9 -26 9 -52z
m-578 -46 c4 -6 8 -15 8 -20 0 -13 -45 30 -83 79 l-31 40 49 -44 c28 -25 53
-50 57 -55z m228 -16 c11 -20 6 -40 -10 -40 -4 0 -13 14 -19 30 -8 24 -7 30 4
30 8 0 19 -9 25 -20z m675 -280 c4 -6 -1 -13 -10 -17 -26 -9 -35 15 -34 97 l0
75 19 -73 c11 -40 22 -77 25 -82z m4752 23 c14 -21 14 -26 2 -34 -21 -13 -85
-11 -96 4 -6 6 -13 46 -17 87 l-6 75 51 -54 c28 -30 58 -65 66 -78z m-4850 55
c-7 -76 -28 -98 -93 -98 -24 0 -44 3 -44 7 0 18 117 153 133 153 6 0 8 -23 4
-62z m4669 -84 c-8 -20 -26 -17 -26 5 0 10 6 33 13 52 l12 34 3 -39 c2 -21 1
-44 -2 -52z m-5345 27 c44 -14 103 -52 101 -66 -7 -40 -347 13 -402 62 -27 25
223 28 301 4z m6382 10 c24 -9 -58 -43 -158 -67 -79 -18 -243 -24 -247 -9 -4
17 73 53 147 68 73 16 227 21 258 8z m-903 -81 c0 -5 -14 -10 -31 -10 -17 0
-28 4 -24 10 3 6 17 10 31 10 13 0 24 -4 24 -10z m-4420 -14 c0 -2 -35 -16
-77 -30 -170 -57 -199 -92 -183 -221 15 -121 24 -475 13 -514 -9 -35 -47 -57
-71 -42 -6 3 -14 54 -17 111 -9 138 -30 325 -56 483 -16 96 -19 130 -10 141
15 18 106 43 218 60 87 14 183 20 183 12z m4220 -22 c141 -25 150 -29 150 -74
0 -22 -11 -117 -25 -212 -13 -95 -31 -240 -39 -321 -9 -81 -21 -157 -26 -168
-13 -23 -39 -25 -66 -5 -17 13 -19 27 -18 138 0 68 9 203 18 301 10 98 15 194
11 213 -8 46 -62 84 -160 115 -41 13 -75 28 -75 33 0 10 115 0 230 -20z m1040
-12 c-33 -44 -41 -136 -29 -317 6 -88 8 -196 5 -240 -4 -65 -22 -245 -25 -252
-1 -1 -18 -7 -38 -15 -28 -9 -108 -13 -300 -13 -261 0 -261 0 -287 24 -13 13
-55 32 -93 42 -72 20 -116 57 -130 109 -9 34 13 253 42 423 14 78 25 161 25
185 0 29 5 44 16 49 8 3 108 1 222 -6 221 -12 438 -3 542 23 30 8 59 14 63 15
4 1 -2 -12 -13 -27z m-6316 -13 c114 -7 222 -6 367 2 114 6 212 10 219 7 8 -2
14 -31 16 -78 2 -41 13 -133 24 -205 27 -173 36 -338 21 -393 -10 -36 -19 -46
-54 -62 -23 -11 -61 -24 -84 -30 -24 -6 -54 -22 -69 -35 -18 -16 -43 -26 -82
-31 -69 -8 -445 2 -486 14 -54 15 -66 45 -78 193 -10 133 -5 543 8 607 5 25
11 32 22 27 9 -3 88 -10 176 -16z m1142 -56 c18 -18 96 -174 90 -180 -6 -6
-167 56 -218 84 -78 42 -72 74 19 99 66 17 89 17 109 -3z m3937 -3 c44 -13 50
-44 15 -77 -24 -22 -234 -100 -244 -90 -7 6 62 145 85 171 17 20 66 18 144 -4z
m90 -202 c-20 -59 -24 -625 -4 -637 8 -5 11 -24 9 -52 -3 -37 -7 -45 -26 -47
-18 -3 -21 -8 -16 -24 4 -14 2 -18 -5 -14 -8 5 -11 123 -11 399 l0 392 27 17
c38 23 43 15 26 -34z m-4192 -7 c11 -36 9 -42 -14 -72 -13 -19 -28 -45 -32
-58 -10 -33 -25 -7 -19 34 10 59 37 144 45 139 5 -3 14 -22 20 -43z m389 -45
c415 -82 916 -116 1695 -116 858 0 1418 49 1855 162 158 41 145 44 148 -32 2
-35 8 -71 15 -79 8 -9 13 -64 16 -148 2 -113 0 -142 -15 -181 -16 -40 -18 -70
-16 -194 2 -133 1 -147 -15 -152 -317 -97 -646 -157 -1098 -201 -276 -26 -938
-40 -1338 -27 -473 16 -790 50 -1172 127 -164 33 -378 88 -403 104 -26 16 -48
568 -29 742 l8 76 112 -28 c62 -16 168 -40 237 -53z m-1622 -61 c0 -45 -1 -47
-9 -20 -5 16 -11 57 -14 90 l-5 60 14 -40 c8 -22 14 -62 14 -90z m5479 -252
c-2 -21 -4 -6 -4 32 0 39 2 55 4 38 2 -18 2 -50 0 -70z m-5447 -98 c0 -38 -8
-49 -27 -34 -13 12 -18 70 -6 82 13 13 33 -16 33 -48z m1181 -59 c27 25 32 3
20 -93 -12 -92 -27 -133 -51 -133 -20 0 -40 19 -40 39 0 12 3 12 12 3 26 -26
30 -9 26 93 -2 62 0 98 5 89 8 -14 11 -14 28 2z m4371 -72 c21 -11 27 -19 20
-26 -7 -7 -20 -4 -41 11 -48 34 -35 44 21 15z m1196 2 c29 -15 71 -56 57 -56
-15 0 -95 51 -95 60 0 13 6 13 38 -4z m-5728 -2 c0 -3 -10 -14 -22 -24 -19
-15 -21 -21 -11 -43 12 -27 3 -44 -17 -32 -14 9 -13 78 2 93 12 12 48 17 48 6z
m5527 -15 c-9 -6 -45 -15 -80 -20 -42 -7 -87 -24 -137 -52 -125 -71 -187 -92
-112 -37 23 16 44 41 48 54 7 30 41 43 144 55 112 13 159 13 137 0z m-6341 -9
c16 0 29 -11 44 -38 12 -21 41 -50 67 -65 85 -52 34 -40 -89 21 -68 34 -136
64 -153 69 l-30 8 40 6 c22 4 53 5 69 3 16 -2 39 -4 52 -4z m319 -20 c15 0 40
-38 31 -47 -8 -8 -86 39 -80 49 4 5 13 7 21 4 8 -3 21 -6 28 -6z m348 -30
c-51 -48 -91 -52 -180 -18 l-58 22 70 8 c39 5 93 12 120 17 92 16 94 14 48
-29z m5162 34 c13 -5 10 -10 -15 -25 -17 -11 -37 -19 -45 -19 -15 0 -21 31 -8
43 8 9 46 9 68 1z m-227 -20 c46 -4 80 -10 75 -14 -16 -15 -108 -40 -144 -40
-44 0 -110 46 -87 62 7 4 27 6 43 4 17 -3 67 -8 113 -12z m-5720 -45 c40 -16
99 -42 130 -58 85 -43 129 -52 322 -65 l175 -13 -60 -28 c-169 -78 -420 -23
-619 135 -42 33 -76 63 -76 65 0 9 50 -6 128 -36z m-131 -8 c86 -69 158 -150
146 -162 -8 -8 -11 -6 -10 7 2 15 -6 20 -31 22 -24 2 -32 8 -30 20 2 13 -6 18
-29 20 -29 3 -33 7 -33 31 0 34 -41 81 -70 81 -12 0 -18 5 -15 10 10 16 21 12
72 -29z m6535 -21 c-161 -150 -462 -213 -634 -133 l-63 30 155 7 c242 12 274
18 395 80 58 30 118 57 133 59 68 10 69 8 14 -43z m-5452 -65 c22 -43 35 -54
102 -90 l78 -41 -28 -26 c-34 -32 -74 -58 -86 -58 -6 0 -3 7 6 17 16 15 11 19
-65 50 -158 66 -176 73 -182 63 -8 -14 11 -87 45 -169 25 -62 51 -111 128
-245 13 -23 -67 36 -122 89 -41 41 -73 85 -100 138 -39 77 -39 78 -27 132 25
110 110 199 186 193 37 -3 42 -7 65 -53z m4598 30 c16 -13 46 -57 67 -96 31
-59 36 -79 33 -113 -6 -50 -69 -179 -106 -219 -25 -27 -131 -97 -146 -97 -4 0
4 15 17 33 58 76 157 303 157 357 0 38 -11 38 -90 -4 -95 -50 -186 -79 -210
-66 -17 9 -37 47 -28 54 1 2 24 13 50 25 26 12 60 38 75 57 65 82 80 94 116
94 23 0 46 -9 65 -25z m-4878 5 c0 -19 -48 -30 -77 -19 -26 10 -27 12 -8 19
29 12 85 12 85 0z m5085 -4 c19 -13 17 -15 -18 -21 -40 -8 -65 4 -53 24 10 15
49 14 71 -3z m685 -36 c0 -15 -7 -20 -29 -20 -18 0 -34 -8 -43 -21 -9 -14 -21
-20 -37 -17 -22 3 -19 7 29 41 61 42 80 46 80 17z m-5192 -74 c26 -13 63 -26
84 -30 39 -7 48 -20 48 -67 0 -16 7 -46 15 -66 20 -47 19 -60 -4 -39 -10 9
-42 24 -72 34 -54 17 -57 20 -75 90 -6 21 -51 13 -86 -15 l-33 -28 31 40 c46
60 48 64 28 86 -16 18 -16 19 0 19 9 0 38 -11 64 -24z m3900 -6 c-11 -16 -7
-26 24 -72 l37 -52 -85 -17 c-57 -12 -109 -31 -160 -59 -42 -23 -79 -39 -82
-35 -4 4 1 13 12 20 12 9 17 21 13 35 -5 21 -5 21 14 4 18 -16 19 -16 34 20
28 65 30 97 10 113 -18 12 -17 13 6 13 13 1 53 11 89 24 87 31 104 32 88 6z
m-4292 -75 c-6 -28 -2 -41 13 -62 12 -14 21 -34 21 -44 0 -10 13 -39 30 -65
28 -44 31 -64 9 -64 -5 0 -9 6 -9 13 0 6 -14 32 -30 56 -17 24 -30 55 -30 68
0 14 -9 36 -20 50 -30 39 -26 83 8 83 11 0 13 -8 8 -35z m672 4 c37 -13 38
-16 56 -144 14 -101 29 -130 66 -123 17 4 19 49 8 158 -9 82 -3 93 41 80 90
-25 549 -70 941 -91 243 -13 1039 -7 1290 11 236 16 474 39 580 55 52 8 117
18 144 22 l49 6 -7 -39 c-22 -133 -19 -204 9 -204 8 0 15 -7 15 -15 0 -18 -23
-19 -49 -3 -15 9 -34 8 -89 -5 -38 -9 -98 -17 -133 -17 -35 0 -80 -5 -100 -10
-42 -12 -101 -72 -143 -143 -20 -34 -36 -49 -59 -55 -27 -7 -33 -14 -35 -40
-3 -25 -8 -32 -24 -32 -11 0 -36 -16 -54 -36 -37 -39 -45 -83 -19 -104 23 -19
18 -33 -21 -73 -41 -41 -91 -67 -127 -67 -23 0 -77 40 -77 57 0 17 42 73 143
191 192 225 357 445 357 478 0 11 -18 14 -81 14 -136 0 -372 -20 -416 -36 -33
-12 -69 -46 -186 -177 -197 -222 -426 -467 -436 -467 -10 0 -183 185 -413 441
-92 102 -180 191 -195 199 -56 26 -495 52 -509 29 -3 -6 19 -48 49 -92 66 -98
291 -380 388 -487 38 -42 69 -81 69 -85 0 -5 -12 -22 -27 -37 -35 -37 -76 -36
-134 0 -74 47 -129 128 -81 120 49 -8 -10 122 -79 174 -50 37 -101 90 -139
143 -19 28 -47 55 -61 62 -34 17 -180 41 -312 52 -88 8 -115 14 -145 34 -20
13 -49 31 -64 41 -20 12 -28 25 -28 46 0 16 -9 52 -20 80 -28 70 -27 100 4
100 12 0 37 -5 54 -11z m3365 -1 c7 -21 -22 -129 -46 -172 -23 -41 -72 -75
-87 -60 -9 10 7 176 20 211 5 12 19 23 32 26 46 9 76 7 81 -5z m617 1 c0 -6 7
-9 15 -5 8 3 15 1 15 -4 0 -23 -80 -25 -88 -2 -2 7 2 10 11 6 8 -3 18 -1 22 5
8 14 25 14 25 0z m-5142 -6 c-10 -2 -28 -2 -40 0 -13 2 -5 4 17 4 22 1 32 -1
23 -4z m626 -73 c32 -11 92 -27 134 -35 43 -9 79 -20 80 -26 2 -5 32 -23 65
-39 34 -16 91 -47 126 -70 120 -75 98 -36 -34 61 -89 66 -81 80 12 20 38 -24
76 -61 102 -97 45 -63 127 -222 118 -230 -3 -3 -65 52 -139 123 -142 137 -176
158 -271 168 -66 7 -217 78 -256 119 -30 32 -16 34 63 6z m4486 -43 c-22 -57
-40 -81 -40 -52 0 19 50 119 56 112 3 -2 -5 -30 -16 -60z m205 16 c-13 -94
-34 -150 -66 -178 -39 -32 -48 -26 -20 13 12 17 21 34 21 40 0 5 6 15 14 21 8
7 23 44 33 82 9 38 19 69 21 69 2 0 0 -21 -3 -47z m-285 17 c0 -30 -147 -95
-270 -121 -82 -17 -103 -31 -232 -155 -65 -63 -123 -114 -129 -114 -35 0 121
273 172 301 34 18 22 -16 -16 -45 -33 -26 -61 -63 -53 -72 3 -2 45 22 94 53
112 71 192 107 302 138 96 26 132 30 132 15z m-4700 -88 c4 -36 11 -45 52 -72
44 -29 108 -100 90 -100 -4 0 -24 16 -43 36 -18 20 -42 40 -52 46 -17 8 -18 7
-12 -14 7 -21 6 -22 -9 -9 -28 23 -56 87 -56 126 0 51 24 40 30 -13z m4355 28
c-16 -11 -41 -20 -55 -20 l-25 1 24 19 c13 11 37 20 55 20 l31 0 -30 -20z
m300 -71 c-67 -69 -180 -159 -249 -199 -50 -28 -212 -90 -237 -90 -26 0 1 37
90 123 104 100 124 110 254 138 32 7 86 27 120 45 34 18 64 33 67 33 2 1 -18
-22 -45 -50z m-3070 30 c137 -16 146 -20 222 -112 104 -126 262 -304 430 -484
84 -90 159 -176 167 -192 13 -25 13 -30 -5 -57 -26 -41 -26 -122 1 -157 23
-28 74 -43 115 -33 63 16 88 138 40 194 -14 17 -25 37 -25 45 0 8 77 97 170
197 184 196 341 372 434 488 33 40 72 80 87 88 30 15 274 42 285 31 8 -8 -215
-287 -377 -472 -146 -166 -525 -552 -608 -618 l-64 -51 -246 250 c-136 137
-312 324 -392 416 -146 167 -389 462 -389 472 0 9 55 7 155 -5z m-1126 -65
c58 -13 116 -32 130 -41 32 -20 221 -204 221 -214 0 -10 -119 24 -185 52 -103
44 -267 167 -297 223 -9 16 -8 18 8 11 11 -4 66 -18 123 -31z m-106 -77 c26
-22 52 -48 58 -60 11 -20 11 -20 -17 1 -16 11 -42 34 -58 51 -17 17 -38 31
-48 31 -18 0 -24 11 -12 23 9 8 18 2 77 -46z m797 -22 l25 -14 -25 0 c-14 0
-38 6 -55 14 l-30 13 30 1 c17 0 41 -6 55 -14z m2705 0 c-22 -8 -51 -13 -65
-13 -24 0 -24 0 5 13 17 8 46 14 65 14 l35 -1 -40 -13z m-3631 -35 c83 -13
124 -29 187 -74 121 -88 216 -113 468 -126 101 -5 186 -12 189 -15 10 -10 -33
-47 -122 -107 -169 -113 -170 -113 -336 -112 -178 1 -304 25 -470 91 -128 50
-126 50 -177 -16 -51 -65 -46 -77 35 -84 37 -4 87 -7 112 -7 82 0 82 -10 -8
-107 -44 -48 -289 -296 -544 -550 l-463 -461 -238 -141 c-304 -180 -386 -225
-395 -216 -10 10 61 69 148 122 41 25 177 100 302 165 l227 119 388 392 c394
398 593 610 593 632 0 18 -48 25 -169 25 l-106 0 -265 -262 c-250 -249 -219
-214 141 157 207 213 243 259 235 303 -6 41 -22 62 -46 62 -34 0 -145 -95
-385 -330 -132 -129 -206 -198 -165 -155 159 169 575 585 585 585 6 0 27 -16
46 -36 136 -142 361 -220 564 -194 162 20 305 89 239 114 -8 3 -56 11 -104 16
-49 6 -124 21 -167 35 -81 26 -437 198 -393 190 14 -3 56 -10 94 -15z m1071
-8 l49 -7 69 -120 c184 -320 187 -345 44 -345 -107 0 -126 8 -192 74 -63 64
-109 141 -183 314 l-41 92 102 -1 c56 0 124 -4 152 -7z m3515 -1 c0 -5 -21
-14 -46 -20 -26 -7 -92 -36 -148 -66 -116 -61 -228 -99 -342 -114 -150 -21
-172 -36 -105 -71 72 -36 201 -61 319 -61 173 1 287 42 422 152 40 32 82 59
92 59 22 0 78 -36 78 -51 0 -5 -8 -9 -18 -9 -21 0 -50 -29 -78 -77 -10 -18
-21 -33 -24 -34 -3 0 -18 -2 -34 -4 -15 -2 -68 -20 -116 -40 -166 -67 -362
-101 -533 -93 -114 5 -155 23 -262 110 -96 77 -120 91 -145 83 -11 -4 -20 -4
-20 0 0 14 62 25 225 40 255 23 368 57 472 141 23 19 57 41 75 49 36 16 188
21 188 6z m-941 -10 c22 -14 7 -65 -58 -197 -107 -215 -153 -254 -310 -262
-83 -4 -99 -2 -111 13 -12 15 -12 23 4 67 24 68 164 313 202 354 l31 34 114 0
c63 0 120 -4 128 -9z m-3805 -22 c22 -6 121 -48 220 -94 210 -96 261 -115 336
-124 l55 -7 -53 -12 c-73 -17 -224 -15 -301 3 -78 19 -160 62 -237 123 -66 54
-99 95 -90 111 9 14 21 14 70 0z m4906 -5 c0 -9 -15 -30 -32 -47 -49 -46 -206
-145 -266 -167 -70 -26 -191 -39 -275 -29 -98 12 -110 23 -38 36 74 14 227 75
396 158 94 46 142 64 173 64 32 1 42 -3 42 -15z m-3982 -67 c12 -11 22 -24 22
-29 0 -14 -30 -9 -36 7 -4 8 -12 15 -20 15 -8 0 -14 9 -14 21 0 22 10 19 48
-14z m-1107 -196 c-29 -40 -209 -229 -536 -561 -268 -273 -345 -362 -345 -401
0 -27 41 -67 75 -74 28 -5 40 3 131 84 55 49 216 202 357 340 248 242 433 411
449 411 18 0 3 -22 -81 -116 -119 -133 -727 -737 -818 -813 -40 -33 -103 -76
-140 -97 -37 -20 -131 -72 -207 -115 -77 -43 -141 -77 -142 -76 -5 5 169 308
213 372 69 100 121 157 471 509 304 306 574 566 588 566 3 0 -4 -13 -15 -29z
m5290 -63 c158 -141 785 -772 862 -868 56 -70 242 -376 269 -443 11 -27 -11
-18 -212 84 -123 63 -200 110 -260 158 -90 73 -850 833 -889 889 -45 64 2 54
92 -21 34 -28 190 -177 347 -332 280 -275 429 -413 468 -434 25 -14 78 3 92
29 21 38 11 72 -37 129 -26 31 -208 218 -403 416 -328 332 -450 462 -450 479
0 16 24 -1 121 -86z m285 -423 c265 -264 434 -440 434 -451 0 -12 -142 123
-398 379 l-397 397 -136 0 -137 0 9 -41 c14 -61 7 -65 -24 -17 -32 50 -31 72
3 75 14 1 59 5 102 8 42 4 85 13 95 20 17 13 17 15 -5 44 -12 17 -22 33 -22
36 0 21 91 -65 476 -450z m-3792 313 c8 -12 13 -25 11 -29 -3 -4 7 -12 22 -18
24 -9 18 -10 -35 -7 -50 3 -62 1 -58 -9 3 -8 -5 -16 -21 -20 -37 -9 -166 5
-178 20 -6 7 -21 12 -35 11 -19 -1 -26 5 -28 22 -4 26 0 26 53 7 42 -15 142
-18 185 -6 15 4 26 15 28 29 4 29 36 29 56 0z m1796 -32 c36 -1 83 3 105 8
l40 9 -29 -32 -30 -31 -105 1 c-58 0 -100 3 -93 6 31 12 6 21 -50 16 l-61 -6
19 21 c17 20 25 21 79 15 33 -4 89 -7 125 -7z m-3569 -23 c-11 -16 -154 -161
-317 -323 l-298 -295 300 308 c164 170 303 315 307 323 4 8 13 14 18 14 6 0 1
-12 -10 -27z m3124 -48 c-38 -32 -32 -63 30 -146 50 -67 77 -131 62 -146 -4
-3 -18 21 -32 53 -31 70 -60 102 -138 156 l-58 39 31 37 c18 20 44 47 58 59
l27 22 22 -27 22 -27 -24 -20z m2651 -526 c101 -103 184 -191 184 -195 0 -12
-621 608 -713 711 -74 84 213 -197 529 -516z m-3654 535 c23 -20 44 -39 46
-43 1 -4 -27 -31 -64 -61 -80 -67 -112 -107 -122 -157 -9 -42 -39 -55 -34 -14
4 40 33 91 84 146 26 29 48 61 48 71 0 11 -14 31 -31 45 -19 15 -29 31 -25 37
13 22 54 12 98 -24z m-170 -127 c-26 -35 -52 -72 -58 -82 -9 -17 -16 -18 -60
-9 -31 6 -49 14 -49 23 0 11 195 131 212 131 1 0 -19 -29 -45 -63z m1001 50
c-4 -7 -37 -39 -73 -72 l-65 -59 70 72 c68 71 84 84 68 59z m342 -49 c69 -35
125 -66 125 -69 0 -10 -137 -42 -149 -34 -6 3 -11 12 -11 20 0 8 -22 43 -50
79 -27 37 -47 66 -45 66 3 0 61 -28 130 -62z m-1010 -19 c33 -34 51 -56 40
-48 -21 14 -111 109 -103 109 2 0 30 -28 63 -61z m3645 -194 c0 -12 -148 134
-162 160 -6 11 29 -18 76 -65 47 -46 86 -89 86 -95z m-2247 76 c15 -15 -35
-31 -115 -38 -57 -5 -68 -3 -68 9 0 18 17 34 45 41 30 8 126 0 138 -12z
m-1967 -9 c15 -9 11 -12 -26 -22 -49 -13 -138 -9 -185 10 -24 9 -27 13 -15 21
18 13 201 5 226 -9z m4494 -346 c0 -13 -66 51 -92 89 -13 19 0 9 35 -25 32
-30 57 -59 57 -64z m0 -476 c231 -117 333 -182 388 -248 71 -86 61 -89 -38
-12 -42 33 -122 84 -335 215 -292 179 -294 185 -15 45z"/>
<path d="M8340 7845 c-35 -36 -60 -65 -54 -65 11 0 124 113 124 124 0 11 -5 6
-70 -59z"/>
<path d="M8126 7251 c-77 -78 -127 -137 -132 -155 -9 -36 19 -126 50 -163 l24
-27 38 29 c102 78 364 353 364 382 0 18 -37 31 -136 47 l-83 13 -125 -126z
m145 52 c-14 -26 -211 -219 -211 -208 0 8 210 225 218 225 1 0 -2 -8 -7 -17z
m99 -12 c0 -18 -219 -247 -266 -278 -31 -20 -48 -9 -32 20 34 65 252 277 284
277 8 0 14 -8 14 -19z"/>
<path d="M1857 7356 c-27 -7 -56 -20 -64 -29 -15 -15 -14 -20 13 -59 37 -55
276 -294 331 -331 23 -16 47 -26 53 -22 18 11 59 105 66 152 5 37 2 48 -22 81
-39 51 -124 134 -188 182 -59 45 -99 50 -189 26z m74 -66 c49 -25 220 -193
243 -238 18 -34 14 -52 -9 -52 -28 0 -305 273 -305 300 0 16 27 12 71 -10z
m209 -106 c47 -47 76 -82 65 -76 -17 9 -162 162 -153 162 2 0 42 -39 88 -86z"/>
<path d="M4096 6128 c-216 -219 -429 -481 -618 -758 -122 -179 -201 -316 -192
-332 11 -20 227 -299 318 -413 115 -144 283 -313 502 -506 146 -129 195 -167
211 -163 35 10 48 207 48 746 -1 257 -4 471 -8 475 -4 3 -20 2 -35 -3 -21 -7
-28 -18 -34 -49 -12 -68 -30 -539 -29 -763 l1 -213 -142 123 c-176 153 -393
367 -478 473 -68 86 -220 313 -220 330 0 5 78 96 172 200 285 315 395 453 637
792 139 196 146 216 72 221 l-45 3 -160 -163z"/>
<path d="M4616 6272 l-48 -3 7 -307 c4 -169 10 -451 14 -627 l6 -320 40 -6
c25 -4 43 -3 47 4 28 44 30 532 4 824 -10 111 -16 208 -14 215 5 15 271 -317
443 -552 137 -188 185 -247 282 -350 l61 -66 -70 -79 c-132 -148 -222 -269
-380 -505 -86 -129 -209 -302 -272 -383 -64 -82 -116 -152 -116 -156 0 -4 21
-17 47 -30 l48 -23 49 53 c176 191 358 415 641 789 115 151 221 290 236 309
l27 33 -105 102 c-132 126 -225 239 -438 531 -204 280 -291 389 -387 480 -72
69 -74 70 -122 67z"/>
<path d="M5853 5493 c2 -423 0 -883 -5 -1040 -10 -271 -5 -455 12 -482 4 -8
20 -13 35 -13 20 0 42 16 93 73 63 69 272 297 769 836 214 233 233 259 201
291 -7 7 -19 12 -27 12 -9 0 -68 -55 -131 -122 -63 -67 -218 -217 -345 -333
-126 -116 -285 -269 -352 -340 l-122 -128 -3 119 c-2 66 -4 423 -5 794 0 395
-5 733 -12 815 -6 77 -11 170 -11 208 l0 67 -51 0 -51 0 5 -757z"/>
<path d="M6758 3133 c-20 -5 -24 -19 -7 -25 6 -2 14 -27 17 -56 4 -48 3 -52
-17 -52 -91 0 -131 -117 -57 -165 21 -14 28 -14 59 -2 19 8 47 12 62 10 23 -5
26 -3 22 13 -3 11 -13 79 -23 152 -10 82 -21 132 -28 131 -6 -1 -19 -3 -28 -6z
m16 -161 c3 -5 8 -31 12 -59 6 -48 5 -51 -19 -57 -34 -8 -52 0 -66 30 -15 34
-14 60 5 78 16 17 59 22 68 8z"/>
<path d="M3285 3100 c-40 -16 -68 -58 -73 -108 -6 -66 17 -108 71 -133 42 -18
132 -26 140 -11 3 4 7 30 8 57 l4 50 -35 2 c-19 1 -29 0 -22 -3 7 -3 12 -24
12 -50 0 -41 -2 -44 -26 -44 -35 0 -80 28 -93 57 -15 34 -14 99 4 132 29 58
129 59 160 3 l14 -27 1 33 c0 26 -5 34 -26 42 -30 12 -111 12 -139 0z"/>
<path d="M3935 3070 c-3 -5 -1 -10 4 -10 7 0 11 -23 11 -55 l0 -55 -45 0 c-61
0 -95 -32 -95 -88 0 -56 24 -73 103 -77 l64 -3 7 117 c4 64 9 131 12 149 6 30
5 32 -24 32 -17 0 -34 -4 -37 -10z m-11 -143 c13 -10 17 -24 14 -62 -3 -46 -5
-50 -31 -53 -39 -5 -57 14 -57 59 0 28 6 42 22 53 27 19 30 19 52 3z"/>
<path d="M4915 3030 c-11 -5 -14 -9 -7 -9 8 -1 12 -19 12 -55 l0 -53 -41 -7
c-59 -9 -91 -45 -87 -98 4 -56 38 -82 87 -68 24 6 39 6 47 -1 28 -23 34 3 34
152 0 156 -1 158 -45 139z m-7 -149 c9 -5 12 -25 10 -62 -3 -52 -4 -54 -33
-57 -35 -4 -55 18 -55 64 0 50 41 79 78 55z"/>
<path d="M5285 3030 c-17 -7 -17 -9 -2 -9 15 -1 17 -12 17 -95 0 -139 8 -186
33 -186 18 0 19 5 13 46 -3 26 -6 93 -6 150 0 112 -3 116 -55 94z"/>
<path d="M4050 3010 c0 -13 7 -20 20 -20 13 0 20 7 20 20 0 13 -7 20 -20 20
-13 0 -20 -7 -20 -20z"/>
<path d="M5966 3018 c-12 -38 -15 -68 -8 -68 7 0 42 62 42 75 0 11 -31 4 -34
-7z"/>
<path d="M6909 3015 c-87 -47 -28 -186 65 -155 60 20 62 36 4 35 -38 0 -53 4
-62 18 -14 22 0 32 55 41 44 7 52 31 21 59 -22 21 -48 21 -83 2z m51 -20 c16
-19 6 -32 -30 -37 -34 -5 -40 11 -14 36 19 20 28 20 44 1z"/>
<path d="M5690 3010 c-29 -4 -32 -7 -18 -15 14 -8 18 -33 24 -128 l7 -118 76
3 75 3 7 33 c8 39 3 40 -23 7 -15 -19 -29 -25 -59 -25 l-39 0 -1 78 c0 42 -4
97 -7 122 -7 45 -7 45 -42 40z"/>
<path d="M3518 2983 c-10 -2 -18 -8 -18 -13 0 -5 7 -7 15 -4 8 4 26 3 40 0 18
-5 25 -13 25 -31 0 -23 -4 -25 -44 -25 -51 0 -71 -18 -62 -55 7 -26 43 -42 71
-31 9 3 24 0 35 -6 10 -7 22 -10 25 -6 3 3 9 38 12 78 5 64 4 75 -12 86 -18
14 -52 16 -87 7z m62 -97 c0 -44 -35 -62 -60 -31 -10 12 -10 18 0 30 16 19 60
20 60 1z"/>
<path d="M6538 2974 c-4 -3 -27 -7 -53 -9 -44 -3 -91 -25 -53 -25 17 0 28 -39
28 -101 0 -33 3 -39 21 -39 21 0 22 3 16 70 -6 68 -5 70 19 76 13 3 30 4 38 1
14 -6 26 -51 26 -103 0 -28 4 -34 21 -34 21 0 22 3 15 72 -3 39 -11 77 -17 85
-12 13 -51 18 -61 7z"/>
<path d="M3660 2960 c0 -5 5 -10 11 -10 9 0 10 -22 6 -75 -6 -69 -5 -75 12
-75 16 0 21 10 26 58 4 31 8 63 10 70 5 14 45 17 45 2 0 -13 27 -13 36 1 3 6
0 17 -8 25 -11 11 -21 12 -41 5 -17 -7 -27 -7 -27 -1 0 6 -16 10 -35 10 -19 0
-35 -4 -35 -10z"/>
<path d="M6314 2950 c-51 -20 -71 -98 -36 -138 25 -31 61 -35 107 -12 l40 20
-33 -5 c-39 -6 -77 8 -86 31 -9 23 -3 27 47 33 35 5 43 10 45 30 6 41 -35 61
-84 41z m46 -41 c0 -14 -7 -19 -30 -19 -34 0 -41 23 -13 38 23 13 43 4 43 -19z"/>
<path d="M6217 2943 c-4 -3 -29 -5 -57 -4 -42 1 -55 -3 -75 -23 -30 -30 -31
-50 -6 -75 13 -13 16 -23 9 -35 -5 -9 -7 -25 -3 -35 3 -11 1 -22 -5 -26 -14
-8 -13 -48 2 -63 35 -35 149 8 156 58 5 33 -22 50 -80 50 -36 0 -48 4 -48 15
0 10 10 15 28 15 46 0 75 27 70 66 -3 28 -1 34 14 34 10 0 18 7 18 15 0 16
-12 20 -23 8z m-52 -63 c0 -28 -4 -36 -22 -38 -26 -4 -47 29 -38 59 5 15 14
19 33 17 24 -3 27 -8 27 -38z m45 -150 c0 -22 -31 -33 -76 -28 -21 2 -30 9
-32 26 -3 21 0 22 52 22 49 0 56 -2 56 -20z"/>
<path d="M4030 2930 c-10 -6 -11 -10 -2 -10 8 0 12 -22 12 -75 0 -61 3 -75 15
-75 20 0 22 9 29 98 5 69 4 72 -17 72 -12 0 -29 -5 -37 -10z"/>
<path d="M4153 2906 c-22 -19 -28 -32 -28 -66 0 -65 48 -94 123 -74 34 10 26
22 -14 21 -27 -1 -42 5 -55 22 -29 35 -24 41 36 41 54 0 55 1 55 28 0 15 -5
33 -12 40 -20 20 -75 14 -105 -12z m75 -18 c3 -14 -3 -18 -27 -18 -29 0 -41
17 -24 34 13 13 48 1 51 -16z"/>
<path d="M5916 2905 c-20 -18 -26 -34 -26 -65 0 -68 52 -98 124 -70 38 14 31
26 -12 22 -27 -3 -44 1 -55 13 -26 25 -21 45 11 45 49 0 72 11 72 34 0 51 -68
64 -114 21z m71 -10 c7 -20 3 -23 -35 -31 -29 -6 -32 -4 -25 12 12 35 49 46
60 19z"/>
<path d="M4300 2909 c0 -5 5 -9 10 -9 6 0 10 -32 10 -76 0 -66 2 -75 18 -72
14 3 18 16 20 66 3 55 6 64 27 74 40 18 55 -3 55 -78 0 -57 2 -64 20 -64 18 0
20 7 20 74 0 47 -5 77 -12 83 -16 13 -168 14 -168 2z"/>
<path d="M4536 2888 c-20 -28 -6 -53 40 -75 38 -19 42 -46 7 -51 -14 -2 -23 3
-28 17 -7 22 -35 18 -35 -5 0 -32 70 -45 108 -18 36 25 28 59 -20 86 -44 25
-49 37 -23 53 12 8 21 4 36 -14 l19 -23 0 26 c0 24 -3 26 -44 26 -35 0 -48 -5
-60 -22z"/>
<path d="M5050 2892 c-63 -31 -66 -126 -6 -154 19 -8 36 -8 71 2 51 14 51 26
0 21 -32 -2 -75 25 -75 48 0 9 48 21 86 21 32 0 33 43 2 64 -28 20 -35 20 -78
-2z m58 -34 c3 -15 -4 -18 -32 -18 -39 0 -39 0 -30 25 9 22 58 16 62 -7z"/>
<path d="M5418 2903 c-32 -8 -20 -25 12 -18 19 4 36 2 45 -5 26 -22 17 -39
-25 -46 -48 -8 -63 -23 -58 -61 3 -28 4 -28 71 -29 l67 -1 0 64 c0 85 -10 103
-58 102 -20 -1 -45 -3 -54 -6z m72 -107 c0 -16 -7 -27 -20 -31 -25 -8 -40 1
-40 24 0 24 9 31 37 31 18 0 23 -6 23 -24z"/>
</g>
</svg>
