<?xml version="1.0" standalone="no"?>
<!DOCTYPE svg PUBLIC "-//W3C//DTD SVG 1.1//EN"
"http://www.w3.org/Graphics/SVG/1.1/DTD/svg11.dtd">

<svg width="879" height="651" view_box="0 0 879 651"
xmlns="http://www.w3.org/2000/svg"
xmlns:link="http://www.w3.org/1999/xlink">\n\n<desc>Généré par Mocodo 2.3.7 le Mon, 01 Mar 2021 02:34:03</desc>

<rect id="frame" x="0" y="0" width="879" height="651" fill="#f7f7f7" stroke="none" stroke-width="0"/>

<!-- Association GIVE -->
<line x1="590" y1="457" x2="462" y2="457" stroke="#4393c3" stroke-width="2"/>
<text x="536" y="474.0" fill="#b2182b" font-family="Verdana" font-size="12">0,N</text>
<line x1="323" y1="457" x2="462" y2="457" stroke="#4393c3" stroke-width="2"/>
<text x="366" y="474.0" fill="#b2182b" font-family="Verdana" font-size="12">1,N</text>
<g id="association-GIVE">
	<path d="M 471 432 a 14 14 90 0 1 14 14 V 457 h -46 V 446 a 14 14 90 0 1 14 -14" fill="#92c5de" stroke="#92c5de" stroke-width="0"/>
	<path d="M 485 457.0 v 11 a 14 14 90 0 1 -14 14 H 453 a 14 14 90 0 1 -14 -14 V 457.0 H 46" fill="#d1e5f0" stroke="#d1e5f0" stroke-width="0"/>
	<rect x="439" y="432" width="46" height="50" fill="none" rx="14" stroke="#4393c3" stroke-width="2"/>
	<line x1="439" y1="457" x2="485" y2="457" stroke="#4393c3" stroke-width="1"/>
	<text x="446" y="449.7" fill="#000000" font-family="Verdana" font-size="12">GIVE</text>
</g>

<!-- Association BE -->
<line x1="825" y1="322" x2="54" y2="322" stroke="#4393c3" stroke-width="2"/>
<text x="757" y="339.0" fill="#b2182b" font-family="Verdana" font-size="12">0,N</text>
<line x1="323" y1="136" x2="54" y2="322" stroke="#4393c3" stroke-width="2"/>
<text x="243" y="170.614745087" fill="#b2182b" font-family="Verdana" font-size="12">1,1</text>
<g id="association-BE">
	<path d="M 56 297 a 14 14 90 0 1 14 14 V 322 h -32 V 311 a 14 14 90 0 1 14 -14" fill="#92c5de" stroke="#92c5de" stroke-width="0"/>
	<path d="M 70 322.0 v 11 a 14 14 90 0 1 -14 14 H 52 a 14 14 90 0 1 -14 -14 V 322.0 H 32" fill="#d1e5f0" stroke="#d1e5f0" stroke-width="0"/>
	<rect x="38" y="297" width="32" height="50" fill="none" rx="14" stroke="#4393c3" stroke-width="2"/>
	<line x1="38" y1="322" x2="70" y2="322" stroke="#4393c3" stroke-width="1"/>
	<text x="45" y="314.7" fill="#000000" font-family="Verdana" font-size="12">BE</text>
</g>

<!-- Association CAN  EXPRESSED -->
<line x1="54" y1="457" x2="192" y2="457" stroke="#4393c3" stroke-width="2"/>
<text x="104" y="474.0" fill="#b2182b" font-family="Verdana" font-size="12">1,1</text>
<line x1="323" y1="457" x2="192" y2="457" stroke="#4393c3" stroke-width="2"/>
<text x="258" y="449.0" fill="#b2182b" font-family="Verdana" font-size="12">0,N</text>
<g id="association-CAN  EXPRESSED">
	<path d="M 239 432 a 14 14 90 0 1 14 14 V 457 h -122 V 446 a 14 14 90 0 1 14 -14" fill="#92c5de" stroke="#92c5de" stroke-width="0"/>
	<path d="M 253 457.0 v 11 a 14 14 90 0 1 -14 14 H 145 a 14 14 90 0 1 -14 -14 V 457.0 H 122" fill="#d1e5f0" stroke="#d1e5f0" stroke-width="0"/>
	<rect x="131" y="432" width="122" height="50" fill="none" rx="14" stroke="#4393c3" stroke-width="2"/>
	<line x1="131" y1="457" x2="253" y2="457" stroke="#4393c3" stroke-width="1"/>
	<text x="138" y="449.7" fill="#000000" font-family="Verdana" font-size="12">CAN  EXPRESSED</text>
</g>

<!-- Association CAN  WRITE -->
<line x1="825" y1="457" x2="54" y2="583" stroke="#4393c3" stroke-width="2"/>
<text x="754" y="457.587102706" fill="#b2182b" font-family="Verdana" font-size="12">1,1</text>
<line x1="323" y1="457" x2="54" y2="583" stroke="#4393c3" stroke-width="2"/>
<text x="258" y="470.466241172" fill="#b2182b" font-family="Verdana" font-size="12">0,N</text>
<g id="association-CAN  WRITE">
	<path d="M 85 558 a 14 14 90 0 1 14 14 V 583 h -90 V 572 a 14 14 90 0 1 14 -14" fill="#92c5de" stroke="#92c5de" stroke-width="0"/>
	<path d="M 99 583.0 v 11 a 14 14 90 0 1 -14 14 H 23 a 14 14 90 0 1 -14 -14 V 583.0 H 90" fill="#d1e5f0" stroke="#d1e5f0" stroke-width="0"/>
	<rect x="9" y="558" width="90" height="50" fill="none" rx="14" stroke="#4393c3" stroke-width="2"/>
	<line x1="9" y1="583" x2="99" y2="583" stroke="#4393c3" stroke-width="1"/>
	<text x="16" y="575.7" fill="#000000" font-family="Verdana" font-size="12">CAN  WRITE</text>
</g>

<!-- Association INSCRIPTION -->
<line x1="590" y1="136" x2="462" y2="322" stroke="#4393c3" stroke-width="2"/>
<text x="542.949690293" y="221" fill="#b2182b" font-family="Verdana" font-size="12">0,N</text>
<line x1="323" y1="457" x2="462" y2="322" stroke="#4393c3" stroke-width="2"/>
<text x="366" y="430.168493628" fill="#b2182b" font-family="Verdana" font-size="12">0,N</text>
<g id="association-INSCRIPTION">
	<path d="M 504 288 a 14 14 90 0 1 14 14 V 313 h -112 V 302 a 14 14 90 0 1 14 -14" fill="#92c5de" stroke="#92c5de" stroke-width="0"/>
	<path d="M 518 313.0 v 29 a 14 14 90 0 1 -14 14 H 420 a 14 14 90 0 1 -14 -14 V 313.0 H 112" fill="#d1e5f0" stroke="#d1e5f0" stroke-width="0"/>
	<rect x="406" y="288" width="112" height="68" fill="none" rx="14" stroke="#4393c3" stroke-width="2"/>
	<line x1="406" y1="313" x2="518" y2="313" stroke="#4393c3" stroke-width="1"/>
	<text x="420" y="305.7" fill="#000000" font-family="Verdana" font-size="12">INSCRIPTION</text>
	<text x="413" y="330.8" fill="#000000" font-family="Verdana" font-size="12">inscription_date</text>
	<text x="413" y="347.8" fill="#000000" font-family="Verdana" font-size="12">cancelled_date</text>
</g>

<!-- Association ISSUED -->
<line x1="54" y1="457" x2="192" y2="322" stroke="#4393c3" stroke-width="2"/>
<text x="104" y="423.017143291" fill="#b2182b" font-family="Verdana" font-size="12">1,1</text>
<line x1="323" y1="136" x2="192" y2="322" stroke="#4393c3" stroke-width="2"/>
<text x="242" y="210.033295584" fill="#b2182b" font-family="Verdana" font-size="12">0,N</text>
<g id="association-ISSUED">
	<path d="M 209 297 a 14 14 90 0 1 14 14 V 322 h -62 V 311 a 14 14 90 0 1 14 -14" fill="#92c5de" stroke="#92c5de" stroke-width="0"/>
	<path d="M 223 322.0 v 11 a 14 14 90 0 1 -14 14 H 175 a 14 14 90 0 1 -14 -14 V 322.0 H 62" fill="#d1e5f0" stroke="#d1e5f0" stroke-width="0"/>
	<rect x="161" y="297" width="62" height="50" fill="none" rx="14" stroke="#4393c3" stroke-width="2"/>
	<line x1="161" y1="322" x2="223" y2="322" stroke="#4393c3" stroke-width="1"/>
	<text x="168" y="314.7" fill="#000000" font-family="Verdana" font-size="12">ISSUED</text>
</g>

<!-- Association CONTAIN -->
<line x1="825" y1="136" x2="705" y2="136" stroke="#4393c3" stroke-width="2"/>
<text x="757" y="153.0" fill="#b2182b" font-family="Verdana" font-size="12">0,N</text>
<line x1="590" y1="136" x2="705" y2="136" stroke="#4393c3" stroke-width="2"/>
<text x="642" y="153.0" fill="#b2182b" font-family="Verdana" font-size="12">0,1</text>
<g id="association-CONTAIN">
	<path d="M 727 111 a 14 14 90 0 1 14 14 V 136 h -72 V 125 a 14 14 90 0 1 14 -14" fill="#92c5de" stroke="#92c5de" stroke-width="0"/>
	<path d="M 741 136.0 v 11 a 14 14 90 0 1 -14 14 H 683 a 14 14 90 0 1 -14 -14 V 136.0 H 72" fill="#d1e5f0" stroke="#d1e5f0" stroke-width="0"/>
	<rect x="669" y="111" width="72" height="50" fill="none" rx="14" stroke="#4393c3" stroke-width="2"/>
	<line x1="669" y1="136" x2="741" y2="136" stroke="#4393c3" stroke-width="1"/>
	<text x="676" y="128.7" fill="#000000" font-family="Verdana" font-size="12">CONTAIN</text>
</g>

<!-- Association WRITE -->
<line x1="323" y1="457" x2="590" y2="322" stroke="#4393c3" stroke-width="2"/>
<text x="366" y="450.835191377" fill="#b2182b" font-family="Verdana" font-size="12">0,N</text>
<line x1="590" y1="136" x2="590" y2="322" stroke="#4393c3" stroke-width="2"/>
<text x="595.0" y="221" fill="#b2182b" font-family="Verdana" font-size="12">1,1</text>
<g id="association-WRITE">
	<path d="M 604 297 a 14 14 90 0 1 14 14 V 322 h -56 V 311 a 14 14 90 0 1 14 -14" fill="#92c5de" stroke="#92c5de" stroke-width="0"/>
	<path d="M 618 322.0 v 11 a 14 14 90 0 1 -14 14 H 576 a 14 14 90 0 1 -14 -14 V 322.0 H 56" fill="#d1e5f0" stroke="#d1e5f0" stroke-width="0"/>
	<rect x="562" y="297" width="56" height="50" fill="none" rx="14" stroke="#4393c3" stroke-width="2"/>
	<line x1="562" y1="322" x2="618" y2="322" stroke="#4393c3" stroke-width="1"/>
	<text x="569" y="314.7" fill="#000000" font-family="Verdana" font-size="12">WRITE</text>
</g>

<!-- Association CAN  SEND -->
<line x1="192" y1="583" x2="323" y2="583" stroke="#4393c3" stroke-width="2"/>
<text x="242" y="600.0" fill="#b2182b" font-family="Verdana" font-size="12">1,1</text>
<line x1="323" y1="457" x2="323" y2="583" stroke="#4393c3" stroke-width="2"/>
<text x="328.0" y="550" fill="#b2182b" font-family="Verdana" font-size="12">0,N</text>
<g id="association-CAN  SEND">
	<path d="M 351 558 a 14 14 90 0 1 14 14 V 583 h -84 V 572 a 14 14 90 0 1 14 -14" fill="#92c5de" stroke="#92c5de" stroke-width="0"/>
	<path d="M 365 583.0 v 11 a 14 14 90 0 1 -14 14 H 295 a 14 14 90 0 1 -14 -14 V 583.0 H 84" fill="#d1e5f0" stroke="#d1e5f0" stroke-width="0"/>
	<rect x="281" y="558" width="84" height="50" fill="none" rx="14" stroke="#4393c3" stroke-width="2"/>
	<line x1="281" y1="583" x2="365" y2="583" stroke="#4393c3" stroke-width="1"/>
	<text x="288" y="575.7" fill="#000000" font-family="Verdana" font-size="12">CAN  SEND</text>
</g>

<!-- Association HAVE -->
<line x1="54" y1="136" x2="192" y2="136" stroke="#4393c3" stroke-width="2"/>
<text x="98" y="153.0" fill="#b2182b" font-family="Verdana" font-size="12">0,N</text>
<line x1="323" y1="136" x2="192" y2="136" stroke="#4393c3" stroke-width="2"/>
<text x="242" y="128.0" fill="#b2182b" font-family="Verdana" font-size="12">1,N</text>
<g id="association-HAVE">
	<path d="M 202 111 a 14 14 90 0 1 14 14 V 136 h -48 V 125 a 14 14 90 0 1 14 -14" fill="#92c5de" stroke="#92c5de" stroke-width="0"/>
	<path d="M 216 136.0 v 11 a 14 14 90 0 1 -14 14 H 182 a 14 14 90 0 1 -14 -14 V 136.0 H 48" fill="#d1e5f0" stroke="#d1e5f0" stroke-width="0"/>
	<rect x="168" y="111" width="48" height="50" fill="none" rx="14" stroke="#4393c3" stroke-width="2"/>
	<line x1="168" y1="136" x2="216" y2="136" stroke="#4393c3" stroke-width="1"/>
	<text x="175" y="128.7" fill="#000000" font-family="Verdana" font-size="12">HAVE</text>
</g>

<!-- Association SUGGEST -->
<line x1="323" y1="136" x2="462" y2="136" stroke="#4393c3" stroke-width="2"/>
<text x="382" y="153.0" fill="#b2182b" font-family="Verdana" font-size="12">1,1</text>
<line x1="590" y1="136" x2="462" y2="136" stroke="#4393c3" stroke-width="2"/>
<text x="516" y="128.0" fill="#b2182b" font-family="Verdana" font-size="12">0,N</text>
<g id="association-SUGGEST">
	<path d="M 485 111 a 14 14 90 0 1 14 14 V 136 h -74 V 125 a 14 14 90 0 1 14 -14" fill="#92c5de" stroke="#92c5de" stroke-width="0"/>
	<path d="M 499 136.0 v 11 a 14 14 90 0 1 -14 14 H 439 a 14 14 90 0 1 -14 -14 V 136.0 H 74" fill="#d1e5f0" stroke="#d1e5f0" stroke-width="0"/>
	<rect x="425" y="111" width="74" height="50" fill="none" rx="14" stroke="#4393c3" stroke-width="2"/>
	<line x1="425" y1="136" x2="499" y2="136" stroke="#4393c3" stroke-width="1"/>
	<text x="432" y="128.7" fill="#000000" font-family="Verdana" font-size="12">SUGGEST</text>
</g>

<!-- Association RESERVATION -->
<line x1="323" y1="136" x2="323" y2="322" stroke="#4393c3" stroke-width="2"/>
<text x="328.0" y="280" fill="#b2182b" font-family="Verdana" font-size="12">0,N</text>
<line x1="323" y1="457" x2="323" y2="322" stroke="#4393c3" stroke-width="2"/>
<text x="296.0" y="373" fill="#b2182b" font-family="Verdana" font-size="12">0,N</text>
<g id="association-RESERVATION">
	<path d="M 360 288 a 14 14 90 0 1 14 14 V 313 h -102 V 302 a 14 14 90 0 1 14 -14" fill="#92c5de" stroke="#92c5de" stroke-width="0"/>
	<path d="M 374 313.0 v 29 a 14 14 90 0 1 -14 14 H 286 a 14 14 90 0 1 -14 -14 V 313.0 H 102" fill="#d1e5f0" stroke="#d1e5f0" stroke-width="0"/>
	<rect x="272" y="288" width="102" height="68" fill="none" rx="14" stroke="#4393c3" stroke-width="2"/>
	<line x1="272" y1="313" x2="374" y2="313" stroke="#4393c3" stroke-width="1"/>
	<text x="279" y="305.7" fill="#000000" font-family="Verdana" font-size="12">RESERVATION</text>
	<text x="279" y="330.8" fill="#000000" font-family="Verdana" font-size="12">begin_date</text>
	<text x="279" y="347.8" fill="#000000" font-family="Verdana" font-size="12">end_date</text>
</g>

<!-- Association CAN  PUBLISH -->
<line x1="590" y1="583" x2="462" y2="583" stroke="#4393c3" stroke-width="2"/>
<text x="519" y="600.0" fill="#b2182b" font-family="Verdana" font-size="12">1,1</text>
<line x1="323" y1="457" x2="462" y2="583" stroke="#4393c3" stroke-width="2"/>
<text x="366" y="490.027071049" fill="#b2182b" font-family="Verdana" font-size="12">0,N</text>
<g id="association-CAN  PUBLISH">
	<path d="M 499 558 a 14 14 90 0 1 14 14 V 583 h -102 V 572 a 14 14 90 0 1 14 -14" fill="#92c5de" stroke="#92c5de" stroke-width="0"/>
	<path d="M 513 583.0 v 11 a 14 14 90 0 1 -14 14 H 425 a 14 14 90 0 1 -14 -14 V 583.0 H 102" fill="#d1e5f0" stroke="#d1e5f0" stroke-width="0"/>
	<rect x="411" y="558" width="102" height="50" fill="none" rx="14" stroke="#4393c3" stroke-width="2"/>
	<line x1="411" y1="583" x2="513" y2="583" stroke="#4393c3" stroke-width="1"/>
	<text x="418" y="575.7" fill="#000000" font-family="Verdana" font-size="12">CAN  PUBLISH</text>
</g>

<!-- Association POSSESS -->
<line x1="705" y1="322" x2="705" y2="457" stroke="#4393c3" stroke-width="2"/>
<text x="710.0" y="364" fill="#b2182b" font-family="Verdana" font-size="12">0,1</text>
<line x1="825" y1="457" x2="705" y2="457" stroke="#4393c3" stroke-width="2"/>
<text x="754" y="449.0" fill="#b2182b" font-family="Verdana" font-size="12">0,1</text>
<g id="association-POSSESS">
	<path d="M 727 432 a 14 14 90 0 1 14 14 V 457 h -72 V 446 a 14 14 90 0 1 14 -14" fill="#92c5de" stroke="#92c5de" stroke-width="0"/>
	<path d="M 741 457.0 v 11 a 14 14 90 0 1 -14 14 H 683 a 14 14 90 0 1 -14 -14 V 457.0 H 72" fill="#d1e5f0" stroke="#d1e5f0" stroke-width="0"/>
	<rect x="669" y="432" width="72" height="50" fill="none" rx="14" stroke="#4393c3" stroke-width="2"/>
	<line x1="669" y1="457" x2="741" y2="457" stroke="#4393c3" stroke-width="1"/>
	<text x="676" y="449.7" fill="#000000" font-family="Verdana" font-size="12">POSSESS</text>
</g>

<!-- Entity CATEGORY -->
<g id="entity-CATEGORY">
	<g id="frame-CATEGORY">
		<rect x="15" y="111" width="78" height="25" fill="#f4a582" stroke="#f4a582" stroke-width="0"/>
		<rect x="15" y="136.0" width="78" height="25" fill="#fddbc7" stroke="#fddbc7" stroke-width="0"/>
		<rect x="15" y="111" width="78" height="50" fill="none" stroke="#d6604d" stroke-width="2"/>
		<line x1="15" y1="136" x2="93" y2="136" stroke="#d6604d" stroke-width="1"/>
	</g>
	<text x="20" y="128.7" fill="#000000" font-family="Verdana" font-size="12">CATEGORY</text>
	<text x="20" y="153.8" fill="#000000" font-family="Verdana" font-size="12">name</text>
	<line x1="20" y1="156" x2="55" y2="156" stroke="#000000" stroke-width="1"/>
</g>

<!-- Entity GROUP -->
<g id="entity-GROUP">
	<g id="frame-GROUP">
		<rect x="563" y="432" width="54" height="25" fill="#f4a582" stroke="#f4a582" stroke-width="0"/>
		<rect x="563" y="457.0" width="54" height="25" fill="#fddbc7" stroke="#fddbc7" stroke-width="0"/>
		<rect x="563" y="432" width="54" height="50" fill="none" stroke="#d6604d" stroke-width="2"/>
		<line x1="563" y1="457" x2="617" y2="457" stroke="#d6604d" stroke-width="1"/>
	</g>
	<text x="568" y="449.7" fill="#000000" font-family="Verdana" font-size="12">GROUP</text>
	<text x="568" y="474.8" fill="#000000" font-family="Verdana" font-size="12">name</text>
	<line x1="568" y1="477" x2="603" y2="477" stroke="#000000" stroke-width="1"/>
</g>

<!-- Entity POST -->
<g id="entity-POST">
	<g id="frame-POST">
		<rect x="545" y="524" width="90" height="25" fill="#f4a582" stroke="#f4a582" stroke-width="0"/>
		<rect x="545" y="549.0" width="90" height="93" fill="#fddbc7" stroke="#fddbc7" stroke-width="0"/>
		<rect x="545" y="524" width="90" height="118" fill="none" stroke="#d6604d" stroke-width="2"/>
		<line x1="545" y1="549" x2="635" y2="549" stroke="#d6604d" stroke-width="1"/>
	</g>
	<text x="573" y="541.7" fill="#000000" font-family="Verdana" font-size="12">POST</text>
	<text x="550" y="566.7" fill="#000000" font-family="Verdana" font-size="12">title</text>
	<line x1="550" y1="569" x2="574" y2="569" stroke="#000000" stroke-width="1"/>
	<text x="550" y="583.8" fill="#000000" font-family="Verdana" font-size="12">description</text>
	<text x="550" y="600.8" fill="#000000" font-family="Verdana" font-size="12">user</text>
	<text x="550" y="617.8" fill="#000000" font-family="Verdana" font-size="12">created_date</text>
	<text x="550" y="634.8" fill="#000000" font-family="Verdana" font-size="12">update_date</text>
</g>

<!-- Entity REVIEW -->
<g id="entity-REVIEW">
	<g id="frame-REVIEW">
		<rect x="9" y="398" width="90" height="25" fill="#f4a582" stroke="#f4a582" stroke-width="0"/>
		<rect x="9" y="423.0" width="90" height="93" fill="#fddbc7" stroke="#fddbc7" stroke-width="0"/>
		<rect x="9" y="398" width="90" height="118" fill="none" stroke="#d6604d" stroke-width="2"/>
		<line x1="9" y1="423" x2="99" y2="423" stroke="#d6604d" stroke-width="1"/>
	</g>
	<text x="29" y="415.7" fill="#000000" font-family="Verdana" font-size="12">REVIEW</text>
	<text x="14" y="440.7" fill="#000000" font-family="Verdana" font-size="12">title</text>
	<line x1="14" y1="443" x2="38" y2="443" stroke="#000000" stroke-width="1"/>
	<text x="14" y="457.8" fill="#000000" font-family="Verdana" font-size="12">description</text>
	<text x="14" y="474.8" fill="#000000" font-family="Verdana" font-size="12">user</text>
	<text x="14" y="491.8" fill="#000000" font-family="Verdana" font-size="12">created_date</text>
	<text x="14" y="508.8" fill="#000000" font-family="Verdana" font-size="12">update_date</text>
</g>

<!-- Entity GAME -->
<g id="entity-GAME">
	<g id="frame-GAME">
		<rect x="269" y="9" width="108" height="25" fill="#f4a582" stroke="#f4a582" stroke-width="0"/>
		<rect x="269" y="34.0" width="108" height="229" fill="#fddbc7" stroke="#fddbc7" stroke-width="0"/>
		<rect x="269" y="9" width="108" height="254" fill="none" stroke="#d6604d" stroke-width="2"/>
		<line x1="269" y1="34" x2="377" y2="34" stroke="#d6604d" stroke-width="1"/>
	</g>
	<text x="305" y="26.7" fill="#000000" font-family="Verdana" font-size="12">GAME</text>
	<text x="274" y="51.7" fill="#000000" font-family="Verdana" font-size="12">title</text>
	<line x1="274" y1="54" x2="298" y2="54" stroke="#000000" stroke-width="1"/>
	<text x="274" y="68.7" fill="#000000" font-family="Verdana" font-size="12">max_player</text>
	<text x="274" y="85.7" fill="#000000" font-family="Verdana" font-size="12">min_player</text>
	<text x="274" y="102.7" fill="#000000" font-family="Verdana" font-size="12">year</text>
	<text x="274" y="119.7" fill="#000000" font-family="Verdana" font-size="12">duration</text>
	<text x="274" y="136.8" fill="#000000" font-family="Verdana" font-size="12">description</text>
	<text x="274" y="153.8" fill="#000000" font-family="Verdana" font-size="12">quantity</text>
	<text x="274" y="170.8" fill="#000000" font-family="Verdana" font-size="12">number_review</text>
	<text x="274" y="187.8" fill="#000000" font-family="Verdana" font-size="12">category</text>
	<text x="274" y="204.8" fill="#000000" font-family="Verdana" font-size="12">purchased_date</text>
	<text x="274" y="221.8" fill="#000000" font-family="Verdana" font-size="12">from_age_of</text>
	<text x="274" y="238.8" fill="#000000" font-family="Verdana" font-size="12">creator</text>
	<text x="274" y="255.8" fill="#000000" font-family="Verdana" font-size="12">editor</text>
</g>

<!-- Entity TAG-EVENT -->
<g id="entity-TAG-EVENT">
	<g id="frame-TAG-EVENT">
		<rect x="784" y="111" width="82" height="25" fill="#f4a582" stroke="#f4a582" stroke-width="0"/>
		<rect x="784" y="136.0" width="82" height="25" fill="#fddbc7" stroke="#fddbc7" stroke-width="0"/>
		<rect x="784" y="111" width="82" height="50" fill="none" stroke="#d6604d" stroke-width="2"/>
		<line x1="784" y1="136" x2="866" y2="136" stroke="#d6604d" stroke-width="1"/>
	</g>
	<text x="789" y="128.7" fill="#000000" font-family="Verdana" font-size="12">TAG-EVENT</text>
	<text x="789" y="153.8" fill="#000000" font-family="Verdana" font-size="12">name</text>
	<line x1="789" y1="156" x2="824" y2="156" stroke="#000000" stroke-width="1"/>
</g>

<!-- Entity TAG-ARTICLE -->
<g id="entity-TAG-ARTICLE">
	<g id="frame-TAG-ARTICLE">
		<rect x="658" y="297" width="94" height="25" fill="#f4a582" stroke="#f4a582" stroke-width="0"/>
		<rect x="658" y="322.0" width="94" height="25" fill="#fddbc7" stroke="#fddbc7" stroke-width="0"/>
		<rect x="658" y="297" width="94" height="50" fill="none" stroke="#d6604d" stroke-width="2"/>
		<line x1="658" y1="322" x2="752" y2="322" stroke="#d6604d" stroke-width="1"/>
	</g>
	<text x="663" y="314.7" fill="#000000" font-family="Verdana" font-size="12">TAG-ARTICLE</text>
	<text x="663" y="339.8" fill="#000000" font-family="Verdana" font-size="12">name</text>
	<line x1="663" y1="342" x2="698" y2="342" stroke="#000000" stroke-width="1"/>
</g>

<!-- Entity ARTICLE -->
<g id="entity-ARTICLE">
	<g id="frame-ARTICLE">
		<rect x="780" y="398" width="90" height="25" fill="#f4a582" stroke="#f4a582" stroke-width="0"/>
		<rect x="780" y="423.0" width="90" height="93" fill="#fddbc7" stroke="#fddbc7" stroke-width="0"/>
		<rect x="780" y="398" width="90" height="118" fill="none" stroke="#d6604d" stroke-width="2"/>
		<line x1="780" y1="423" x2="870" y2="423" stroke="#d6604d" stroke-width="1"/>
	</g>
	<text x="798" y="415.7" fill="#000000" font-family="Verdana" font-size="12">ARTICLE</text>
	<text x="785" y="440.7" fill="#000000" font-family="Verdana" font-size="12">title</text>
	<line x1="785" y1="443" x2="809" y2="443" stroke="#000000" stroke-width="1"/>
	<text x="785" y="457.8" fill="#000000" font-family="Verdana" font-size="12">description</text>
	<text x="785" y="474.8" fill="#000000" font-family="Verdana" font-size="12">user</text>
	<text x="785" y="491.8" fill="#000000" font-family="Verdana" font-size="12">created_date</text>
	<text x="785" y="508.8" fill="#000000" font-family="Verdana" font-size="12">update_date</text>
</g>

<!-- Entity MESSAGE -->
<g id="entity-MESSAGE">
	<g id="frame-MESSAGE">
		<rect x="147" y="524" width="90" height="25" fill="#f4a582" stroke="#f4a582" stroke-width="0"/>
		<rect x="147" y="549.0" width="90" height="93" fill="#fddbc7" stroke="#fddbc7" stroke-width="0"/>
		<rect x="147" y="524" width="90" height="118" fill="none" stroke="#d6604d" stroke-width="2"/>
		<line x1="147" y1="549" x2="237" y2="549" stroke="#d6604d" stroke-width="1"/>
	</g>
	<text x="162" y="541.7" fill="#000000" font-family="Verdana" font-size="12">MESSAGE</text>
	<text x="152" y="566.7" fill="#000000" font-family="Verdana" font-size="12">title</text>
	<line x1="152" y1="569" x2="176" y2="569" stroke="#000000" stroke-width="1"/>
	<text x="152" y="583.8" fill="#000000" font-family="Verdana" font-size="12">description</text>
	<text x="152" y="600.8" fill="#000000" font-family="Verdana" font-size="12">sender</text>
	<text x="152" y="617.8" fill="#000000" font-family="Verdana" font-size="12">receiver</text>
	<text x="152" y="634.8" fill="#000000" font-family="Verdana" font-size="12">created_date</text>
</g>

<!-- Entity EVENT -->
<g id="entity-EVENT">
	<g id="frame-EVENT">
		<rect x="543" y="68" width="94" height="25" fill="#f4a582" stroke="#f4a582" stroke-width="0"/>
		<rect x="543" y="93.0" width="94" height="111" fill="#fddbc7" stroke="#fddbc7" stroke-width="0"/>
		<rect x="543" y="68" width="94" height="136" fill="none" stroke="#d6604d" stroke-width="2"/>
		<line x1="543" y1="93" x2="637" y2="93" stroke="#d6604d" stroke-width="1"/>
	</g>
	<text x="569" y="85.7" fill="#000000" font-family="Verdana" font-size="12">EVENT</text>
	<text x="548" y="110.7" fill="#000000" font-family="Verdana" font-size="12">title</text>
	<line x1="548" y1="113" x2="572" y2="113" stroke="#000000" stroke-width="1"/>
	<text x="548" y="127.7" fill="#000000" font-family="Verdana" font-size="12">description</text>
	<text x="548" y="144.8" fill="#000000" font-family="Verdana" font-size="12">creator</text>
	<text x="548" y="161.8" fill="#000000" font-family="Verdana" font-size="12">event_date</text>
	<text x="548" y="178.8" fill="#000000" font-family="Verdana" font-size="12">created_date</text>
	<text x="548" y="195.8" fill="#000000" font-family="Verdana" font-size="12">updated_date</text>
</g>

<!-- Entity TYPE-GAME -->
<g id="entity-TYPE-GAME">
	<g id="frame-TYPE-GAME">
		<rect x="784" y="297" width="82" height="25" fill="#f4a582" stroke="#f4a582" stroke-width="0"/>
		<rect x="784" y="322.0" width="82" height="25" fill="#fddbc7" stroke="#fddbc7" stroke-width="0"/>
		<rect x="784" y="297" width="82" height="50" fill="none" stroke="#d6604d" stroke-width="2"/>
		<line x1="784" y1="322" x2="866" y2="322" stroke="#d6604d" stroke-width="1"/>
	</g>
	<text x="789" y="314.7" fill="#000000" font-family="Verdana" font-size="12">TYPE-GAME</text>
	<text x="789" y="339.8" fill="#000000" font-family="Verdana" font-size="12">name</text>
	<line x1="789" y1="342" x2="824" y2="342" stroke="#000000" stroke-width="1"/>
</g>

<!-- Entity USER -->
<g id="entity-USER">
	<g id="frame-USER">
		<rect x="285" y="381" width="76" height="25" fill="#f4a582" stroke="#f4a582" stroke-width="0"/>
		<rect x="285" y="406.0" width="76" height="127" fill="#fddbc7" stroke="#fddbc7" stroke-width="0"/>
		<rect x="285" y="381" width="76" height="152" fill="none" stroke="#d6604d" stroke-width="2"/>
		<line x1="285" y1="406" x2="361" y2="406" stroke="#d6604d" stroke-width="1"/>
	</g>
	<text x="306" y="398.7" fill="#000000" font-family="Verdana" font-size="12">USER</text>
	<text x="290" y="423.7" fill="#000000" font-family="Verdana" font-size="12">first_name</text>
	<line x1="290" y1="426" x2="356" y2="426" stroke="#000000" stroke-width="1"/>
	<text x="290" y="440.7" fill="#000000" font-family="Verdana" font-size="12">last_name</text>
	<text x="290" y="457.8" fill="#000000" font-family="Verdana" font-size="12">email</text>
	<text x="290" y="474.8" fill="#000000" font-family="Verdana" font-size="12">password</text>
	<text x="290" y="491.8" fill="#000000" font-family="Verdana" font-size="12">group</text>
	<text x="290" y="508.8" fill="#000000" font-family="Verdana" font-size="12">inscription</text>
	<text x="290" y="525.8" fill="#000000" font-family="Verdana" font-size="12">avatar</text>
</g>
</svg>